<svg width="83" height="83" viewBox="0 0 83 83" fill="none" xmlns="http://www.w3.org/2000/svg">
<path d="M51.0376 44.7697C52.4839 43.2911 54.457 42.4458 56.5252 42.4187C58.5933 42.3916 60.588 43.185 62.0725 44.6252C63.557 46.0654 64.4104 48.0351 64.446 50.1031C64.4816 52.1711 63.6964 54.169 62.2623 55.6594L51.2293 67.0338C51.0329 67.2364 50.7977 67.3975 50.5379 67.5076C50.278 67.6176 49.9986 67.6743 49.7164 67.6743C49.4342 67.6743 49.1548 67.6176 48.8949 67.5076C48.635 67.3975 48.3999 67.2364 48.2035 67.0338L37.1705 55.6594C35.7723 54.162 35.0175 52.1758 35.0682 50.1278C35.119 48.0798 35.9712 46.1334 37.4417 44.707C38.9122 43.2806 40.8837 42.4881 42.9323 42.4999C44.981 42.5116 46.9432 43.3266 48.3973 44.7697L49.7164 46.1288L51.0376 44.7697ZM34.6651 44.5C33.991 45.4582 33.4923 46.5283 33.1922 47.6607H22.3214C21.536 47.6607 20.7788 47.9531 20.1972 48.4809C19.6156 49.0087 19.2514 49.7342 19.1755 50.5159L19.1607 50.8214V52.328C19.1607 57.9625 26.3018 62.4107 37.0714 62.4107C38.2964 62.4093 39.475 62.3482 40.6072 62.2274L43.3254 65.032C41.37 65.3818 39.2755 65.5714 37.0714 65.5714C24.8711 65.5714 16 60.1624 16 52.328V50.8214C16 49.1449 16.666 47.537 17.8515 46.3515C19.037 45.166 20.6449 44.5 22.3214 44.5H34.6651ZM37.0714 15C38.7317 15 40.3757 15.327 41.9096 15.9624C43.4435 16.5977 44.8373 17.529 46.0113 18.703C47.1853 19.877 48.1165 21.2707 48.7519 22.8046C49.3873 24.3385 49.7143 25.9826 49.7143 27.6429C49.7143 29.3031 49.3873 30.9472 48.7519 32.4811C48.1165 34.015 47.1853 35.4087 46.0113 36.5827C44.8373 37.7567 43.4435 38.688 41.9096 39.3233C40.3757 39.9587 38.7317 40.2857 37.0714 40.2857C33.7183 40.2857 30.5026 38.9537 28.1316 36.5827C25.7606 34.2117 24.4286 30.996 24.4286 27.6429C24.4286 24.2898 25.7606 21.074 28.1316 18.703C30.5026 16.332 33.7183 15 37.0714 15ZM37.0714 18.1607C34.5566 18.1607 32.1448 19.1597 30.3665 20.938C28.5883 22.7162 27.5893 25.128 27.5893 27.6429C27.5893 30.1577 28.5883 32.5695 30.3665 34.3477C32.1448 36.126 34.5566 37.125 37.0714 37.125C39.5863 37.125 41.9981 36.126 43.7763 34.3477C45.5546 32.5695 46.5536 30.1577 46.5536 27.6429C46.5536 25.128 45.5546 22.7162 43.7763 20.938C41.9981 19.1597 39.5863 18.1607 37.0714 18.1607Z" fill="#9EADBF"/>
</svg>
