<svg xmlns="http://www.w3.org/2000/svg" width="83" height="83" fill="none"><path fill="#9EADBF" d="M51.038 44.77a7.82 7.82 0 0 1 11.224 10.89L51.23 67.033a2.11 2.11 0 0 1-3.026 0L37.17 55.659a7.821 7.821 0 0 1 11.227-10.89l1.32 1.36zm-16.373-.27a9.9 9.9 0 0 0-1.473 3.16h-10.87a3.16 3.16 0 0 0-3.146 2.856l-.015.305v1.507c0 5.634 7.14 10.083 17.91 10.083a34 34 0 0 0 3.536-.184l2.718 2.805c-1.955.35-4.05.54-6.254.54-12.2 0-21.071-5.41-21.071-13.244v-1.507a6.32 6.32 0 0 1 6.321-6.321zM37.071 15a12.642 12.642 0 1 1 0 25.284 12.642 12.642 0 0 1 0-25.284m0 3.16a9.482 9.482 0 1 0 0 18.965 9.482 9.482 0 0 0 0-18.964"/></svg>