<svg width="83" height="83" viewBox="0 0 83 83" fill="none" xmlns="http://www.w3.org/2000/svg">
<path d="M56.9997 58.2913C59.1438 58.2913 60.8747 56.5605 60.8747 54.4163C60.8747 52.2722 59.1438 50.5413 56.9997 50.5413C54.8555 50.5413 53.1247 52.2722 53.1247 54.4163C53.1247 56.5605 54.8555 58.2913 56.9997 58.2913ZM61.175 35.4244C60.9854 35.1826 60.6952 35.0413 60.388 35.0413H55.4163C54.8641 35.0413 54.4163 35.4891 54.4163 36.0413V40.4997C54.4163 41.052 54.8641 41.4997 55.4163 41.4997H63.8833C64.7173 41.4997 65.1848 40.539 64.6703 39.8827L61.175 35.4244ZM25.9997 58.2913C28.1438 58.2913 29.8747 56.5605 29.8747 54.4163C29.8747 52.2722 28.1438 50.5413 25.9997 50.5413C23.8555 50.5413 22.1247 52.2722 22.1247 54.4163C22.1247 56.5605 23.8555 58.2913 25.9997 58.2913ZM61.6663 31.1663C61.9811 31.1663 62.2775 31.3145 62.4663 31.5663L69.7163 41.233C69.8462 41.4061 69.9163 41.6166 69.9163 41.833V53.4163C69.9163 53.9686 69.4686 54.4163 68.9163 54.4163H65.7497C65.1974 54.4163 64.7564 54.8664 64.6864 55.4142C64.1985 59.2292 60.9498 62.1663 56.9997 62.1663C53.0495 62.1663 49.8008 59.2292 49.313 55.4142C49.2429 54.8664 48.802 54.4163 48.2497 54.4163H34.7497C34.1974 54.4163 33.7564 54.8664 33.6864 55.4142C33.1985 59.2292 29.9498 62.1663 25.9997 62.1663C22.0495 62.1663 18.8008 59.2292 18.313 55.4142C18.2429 54.8664 17.802 54.4163 17.2497 54.4163H14.083C13.5307 54.4163 13.083 53.9686 13.083 53.4163V25.9997C13.083 23.1322 15.3822 20.833 18.2497 20.833H53.4163C53.9686 20.833 54.4163 21.2807 54.4163 21.833V30.1663C54.4163 30.7186 54.8641 31.1663 55.4163 31.1663H61.6663ZM19.2497 25.9997C18.6974 25.9997 18.2497 26.4474 18.2497 26.9997V48.2497C18.2497 48.802 18.6974 49.2497 19.2497 49.2497H19.7682C20.0514 49.2497 20.3189 49.1272 20.5201 48.9279C21.9237 47.538 23.8611 46.6663 25.9997 46.6663C28.1382 46.6663 30.0756 47.538 31.4793 48.9279C31.6805 49.1272 31.948 49.2497 32.2312 49.2497H48.2497C48.802 49.2497 49.2497 48.802 49.2497 48.2497V26.9997C49.2497 26.4474 48.802 25.9997 48.2497 25.9997H19.2497ZM36.333 30.9972C36.333 30.1063 37.4102 29.6602 38.0401 30.2901L44.6676 36.9176C45.0581 37.3081 45.0581 37.9413 44.6676 38.3318L38.0401 44.9592C37.4102 45.5892 36.333 45.143 36.333 44.2521V41.208C36.333 40.6557 35.8853 40.208 35.333 40.208H24.4163C23.8641 40.208 23.4163 39.7603 23.4163 39.208V36.0413C23.4163 35.4891 23.8641 35.0413 24.4163 35.0413H35.333C35.8853 35.0413 36.333 34.5936 36.333 34.0413V30.9972Z" fill="#9EADBF" stroke="#E6E9EC"/>
</svg>
