<svg width="3825" height="706" viewBox="0 0 3825 706" fill="none" xmlns="http://www.w3.org/2000/svg">
<path d="M144.041 618.25C107.685 618.25 78.8373 611.73 57.4979 598.689C36.5536 585.253 21.7346 566.68 13.0408 542.97C4.34692 518.864 0 490.609 0 458.205V285.118C0 251.924 4.34692 223.471 13.0408 199.761C21.7346 175.655 36.5536 157.082 57.4979 144.041C78.8373 131 107.685 124.48 144.041 124.48C179.607 124.48 207.269 130.408 227.028 142.263C247.182 153.723 261.408 169.925 269.706 190.869C278.005 211.813 282.154 235.919 282.154 263.186V304.679H178.421V256.666C178.421 247.182 177.828 238.093 176.643 229.399C175.853 220.705 173.086 213.592 168.344 208.059C163.602 202.132 155.501 199.168 144.041 199.168C132.976 199.168 124.677 202.132 119.145 208.059C114.008 213.987 110.649 221.495 109.068 230.584C107.883 239.278 107.29 248.565 107.29 258.444V484.286C107.29 494.956 108.08 504.835 109.661 513.924C111.637 522.618 115.193 529.731 120.331 535.264C125.863 540.401 133.767 542.97 144.041 542.97C155.106 542.97 163.009 540.203 167.752 534.671C172.494 528.743 175.457 521.235 176.643 512.146C177.828 503.057 178.421 493.77 178.421 484.286V433.901H282.154V475.395C282.154 502.662 278.005 527.163 269.706 548.897C261.803 570.237 247.774 587.229 227.62 599.875C207.862 612.125 180.002 618.25 144.041 618.25Z" fill="url(#paint0_radial_4092_40227)"/>
<path d="M366.016 611.137V209.838H293.699V131H544.438V209.838H472.713V611.137H366.016Z" fill="url(#paint1_radial_4092_40227)"/>
<path d="M565.453 611.137V131H781.218V203.317H671.557V322.462H755.136V395.965H671.557V539.413H782.403V611.137H565.453Z" fill="url(#paint2_radial_4092_40227)"/>
<path d="M781.375 611.137V536.449C794.811 536.449 805.679 535.659 813.977 534.078C822.276 532.102 828.796 527.755 833.538 521.037C838.28 514.319 842.035 504.045 844.801 490.214C847.567 476.383 849.741 457.809 851.321 434.494C853.297 411.179 855.668 381.541 858.434 345.58L873.846 131H1128.14V611.137H1022.63V212.209H969.874L960.389 365.734C957.623 405.251 954.857 439.434 952.091 468.282C949.324 496.734 944.78 520.642 938.457 540.006C932.53 559.369 923.441 574.583 911.19 585.648C899.335 596.318 882.935 603.629 861.991 607.581C841.047 611.532 814.175 612.718 781.375 611.137Z" fill="url(#paint3_radial_4092_40227)"/>
<path d="M1152.59 611.137V536.449C1166.03 536.449 1176.9 535.659 1185.19 534.078C1193.49 532.102 1200.01 527.755 1204.76 521.037C1209.5 514.319 1213.25 504.045 1216.02 490.214C1218.78 476.383 1220.96 457.809 1222.54 434.494C1224.51 411.179 1226.89 381.541 1229.65 345.58L1245.06 131H1499.36V611.137H1393.85V212.209H1341.09L1331.61 365.734C1328.84 405.251 1326.07 439.434 1323.31 468.282C1320.54 496.734 1316 520.642 1309.67 540.006C1303.75 559.369 1294.66 574.583 1282.41 585.648C1270.55 596.318 1254.15 603.629 1233.21 607.581C1212.26 611.532 1185.39 612.718 1152.59 611.137Z" fill="url(#paint4_radial_4092_40227)"/>
<path d="M1532.11 611.137L1622.8 131H1743.72L1833.23 611.137H1735.42L1719.42 509.775H1648.88L1632.28 611.137H1532.11ZM1658.37 446.349H1709.34L1683.85 259.037L1658.37 446.349Z" fill="url(#paint5_radial_4092_40227)"/>
<path d="M1831.92 611.137L1932.68 369.883L1834.29 131H1933.28L2016.86 355.657H2021.6V131H2105.77V355.657H2111.11L2194.69 131H2293.68L2195.28 369.883L2296.05 611.137H2201.21L2111.11 378.182H2105.77V611.137H2021.6V378.182H2016.86L1926.76 611.137H1831.92Z" fill="url(#paint6_radial_4092_40227)"/>
<path d="M2360.61 611.137V209.838H2288.3V131H2539.03V209.838H2467.31V611.137H2360.61Z" fill="url(#paint7_radial_4092_40227)"/>
<path d="M2560.05 611.137V131H2721.28C2750.13 131 2773.84 136.533 2792.41 147.598C2810.98 158.267 2824.82 174.074 2833.9 195.019C2842.99 215.568 2847.54 240.661 2847.54 270.299C2847.54 307.446 2841.41 335.898 2829.16 355.657C2816.91 375.02 2800.31 388.456 2779.37 395.965C2758.43 403.473 2734.91 407.227 2708.83 407.227H2666.15V611.137H2560.05ZM2666.15 333.132H2701.72C2714.76 333.132 2724.64 330.761 2731.36 326.019C2738.07 321.277 2742.42 314.164 2744.4 304.679C2746.77 295.195 2747.95 283.142 2747.95 268.521C2747.95 256.271 2746.97 245.601 2744.99 236.512C2743.41 227.028 2739.26 219.519 2732.54 213.987C2725.82 208.454 2715.35 205.688 2701.13 205.688H2666.15V333.132Z" fill="url(#paint8_radial_4092_40227)"/>
<path d="M2880.9 611.137V131H3096.67V203.317H2987.01V322.462H3070.59V395.965H2987.01V539.413H3097.85V611.137H2880.9Z" fill="url(#paint9_radial_4092_40227)"/>
<path d="M3130.02 611.137V131H3213.6V406.042L3336.3 131H3405.06V611.137H3319.71V331.354L3194.63 611.137H3130.02ZM3275.25 92.4708C3247.19 92.4708 3224.67 84.5673 3207.67 68.7603C3190.68 52.9534 3182.18 30.0332 3182.18 0H3236.72C3236.72 14.6214 3239.48 25.4887 3245.02 32.6018C3250.94 39.715 3261.02 43.2716 3275.25 43.2716C3289.08 43.2716 3298.96 39.715 3304.89 32.6018C3310.81 25.0935 3313.78 14.2263 3313.78 0H3368.31C3368.31 30.0332 3359.82 52.9534 3342.82 68.7603C3325.83 84.5673 3303.31 92.4708 3275.25 92.4708Z" fill="url(#paint10_radial_4092_40227)"/>
<path d="M3435.2 705.979V535.264H3448.83C3457.92 532.497 3466.22 527.755 3473.73 521.037C3481.63 513.924 3488.75 504.44 3495.07 492.585C3501.39 480.73 3507.12 465.911 3512.26 448.128C3517.4 430.345 3521.74 409.203 3525.3 384.702C3528.86 359.806 3531.82 331.156 3534.19 298.752L3547.23 131H3770.7V535.264H3824.65V705.979H3757.07L3749.36 611.137H3514.04L3502.78 705.979H3435.2ZM3549.01 535.264H3671.71V206.281H3627.26L3621.92 309.422C3619.95 343.406 3616.98 372.254 3613.03 395.965C3609.47 419.675 3605.13 439.434 3599.99 455.241C3595.25 470.653 3590.11 483.298 3584.58 493.178C3579.04 503.057 3573.12 511.158 3566.79 517.481C3560.87 523.804 3554.94 529.731 3549.01 535.264Z" fill="url(#paint11_radial_4092_40227)"/>
<defs>
<radialGradient id="paint0_radial_4092_40227" cx="0" cy="0" r="1" gradientUnits="userSpaceOnUse" gradientTransform="translate(1903.45 393.137) rotate(169.607) scale(1730.98 12954.8)">
<stop stop-color="#F0F2F5"/>
<stop offset="1" stop-color="#323A45"/>
</radialGradient>
<radialGradient id="paint1_radial_4092_40227" cx="0" cy="0" r="1" gradientUnits="userSpaceOnUse" gradientTransform="translate(1903.45 393.137) rotate(169.607) scale(1730.98 12954.8)">
<stop stop-color="#F0F2F5"/>
<stop offset="1" stop-color="#323A45"/>
</radialGradient>
<radialGradient id="paint2_radial_4092_40227" cx="0" cy="0" r="1" gradientUnits="userSpaceOnUse" gradientTransform="translate(1903.45 393.137) rotate(169.607) scale(1730.98 12954.8)">
<stop stop-color="#F0F2F5"/>
<stop offset="1" stop-color="#323A45"/>
</radialGradient>
<radialGradient id="paint3_radial_4092_40227" cx="0" cy="0" r="1" gradientUnits="userSpaceOnUse" gradientTransform="translate(1903.45 393.137) rotate(169.607) scale(1730.98 12954.8)">
<stop stop-color="#F0F2F5"/>
<stop offset="1" stop-color="#323A45"/>
</radialGradient>
<radialGradient id="paint4_radial_4092_40227" cx="0" cy="0" r="1" gradientUnits="userSpaceOnUse" gradientTransform="translate(1903.45 393.137) rotate(169.607) scale(1730.98 12954.8)">
<stop stop-color="#F0F2F5"/>
<stop offset="1" stop-color="#323A45"/>
</radialGradient>
<radialGradient id="paint5_radial_4092_40227" cx="0" cy="0" r="1" gradientUnits="userSpaceOnUse" gradientTransform="translate(1903.45 393.137) rotate(169.607) scale(1730.98 12954.8)">
<stop stop-color="#F0F2F5"/>
<stop offset="1" stop-color="#323A45"/>
</radialGradient>
<radialGradient id="paint6_radial_4092_40227" cx="0" cy="0" r="1" gradientUnits="userSpaceOnUse" gradientTransform="translate(1903.45 393.137) rotate(169.607) scale(1730.98 12954.8)">
<stop stop-color="#F0F2F5"/>
<stop offset="1" stop-color="#323A45"/>
</radialGradient>
<radialGradient id="paint7_radial_4092_40227" cx="0" cy="0" r="1" gradientUnits="userSpaceOnUse" gradientTransform="translate(1903.45 393.137) rotate(169.607) scale(1730.98 12954.8)">
<stop stop-color="#F0F2F5"/>
<stop offset="1" stop-color="#323A45"/>
</radialGradient>
<radialGradient id="paint8_radial_4092_40227" cx="0" cy="0" r="1" gradientUnits="userSpaceOnUse" gradientTransform="translate(1903.45 393.137) rotate(169.607) scale(1730.98 12954.8)">
<stop stop-color="#F0F2F5"/>
<stop offset="1" stop-color="#323A45"/>
</radialGradient>
<radialGradient id="paint9_radial_4092_40227" cx="0" cy="0" r="1" gradientUnits="userSpaceOnUse" gradientTransform="translate(1903.45 393.137) rotate(169.607) scale(1730.98 12954.8)">
<stop stop-color="#F0F2F5"/>
<stop offset="1" stop-color="#323A45"/>
</radialGradient>
<radialGradient id="paint10_radial_4092_40227" cx="0" cy="0" r="1" gradientUnits="userSpaceOnUse" gradientTransform="translate(1903.45 393.137) rotate(169.607) scale(1730.98 12954.8)">
<stop stop-color="#F0F2F5"/>
<stop offset="1" stop-color="#323A45"/>
</radialGradient>
<radialGradient id="paint11_radial_4092_40227" cx="0" cy="0" r="1" gradientUnits="userSpaceOnUse" gradientTransform="translate(1903.45 393.137) rotate(169.607) scale(1730.98 12954.8)">
<stop stop-color="#F0F2F5"/>
<stop offset="1" stop-color="#323A45"/>
</radialGradient>
</defs>
</svg>
