<svg width="739" height="228" viewBox="0 0 739 228" fill="none" xmlns="http://www.w3.org/2000/svg">
<rect x="27.5176" y="23.5862" width="180.828" height="180.828" rx="10.0728" fill="#F0F2F5"/>
<path d="M192.621 39.3103V59.1082H68.4385V168.891H192.622L177.324 188.688H68.4385V188.69H43.2412V39.3103H192.621ZM177.304 93.3006H149.438V152.695H124.242V93.3006H81.0166V73.5037H192.602L177.304 93.3006Z" fill="#121417"/>
<path d="M309.003 73.1886C308.415 78.372 306.625 82.941 303.633 86.8953C300.64 90.7963 296.686 93.8422 291.77 96.0331C286.853 98.2241 281.242 99.3195 274.937 99.3195C268.043 99.3195 261.978 98.0103 256.741 95.3919C251.558 92.7734 247.523 89.113 244.638 84.4105C241.752 79.708 240.309 74.2306 240.309 67.9785C240.309 61.7263 241.752 56.2489 244.638 51.5464C247.523 46.8439 251.558 43.1835 256.741 40.565C261.978 37.9466 268.043 36.6374 274.937 36.6374C281.242 36.6374 286.853 37.7329 291.77 39.9238C296.686 42.1147 300.64 45.1607 303.633 49.0616C306.625 52.9625 308.415 57.5314 309.003 62.7683H293.773C293.239 60.043 292.144 57.7185 290.487 55.7947C288.884 53.871 286.746 52.4014 284.075 51.3861C281.456 50.3174 278.41 49.783 274.937 49.783C270.929 49.783 267.482 50.5311 264.597 52.0274C261.711 53.4702 259.493 55.5542 257.944 58.2796C256.394 61.0049 255.619 64.2378 255.619 67.9785C255.619 71.7191 256.394 74.952 257.944 77.6774C259.493 80.4027 261.711 82.5135 264.597 84.0097C267.482 85.4525 270.929 86.1739 274.937 86.1739C278.41 86.1739 281.456 85.6663 284.075 84.651C286.746 83.6356 288.884 82.1661 290.487 80.2424C292.144 78.3186 293.239 75.9674 293.773 73.1886H309.003Z" fill="#F0F2F5"/>
<path d="M329.757 57.478H344.666V98.037H329.757V57.478ZM312.043 52.348H362.461V63.65H312.043V52.348Z" fill="#F0F2F5"/>
<path d="M392.978 99.3195C387.527 99.3195 382.638 98.3042 378.309 96.2736C374.034 94.243 370.668 91.4108 368.21 87.777C365.752 84.1433 364.523 79.895 364.523 75.0322C364.523 70.2763 365.698 66.1082 368.049 62.5278C370.401 58.9475 373.634 56.1421 377.748 54.1114C381.916 52.0808 386.619 51.0655 391.856 51.0655C397.2 51.0655 401.795 52.2411 405.643 54.5924C409.49 56.9436 412.456 60.2567 414.54 64.5317C416.624 68.8067 417.666 73.8299 417.666 79.6011H376.466V70.2228H409.49L404.12 73.5894C403.959 71.0778 403.345 68.9671 402.276 67.2571C401.261 65.4936 399.898 64.1577 398.188 63.2492C396.478 62.2874 394.448 61.8064 392.096 61.8064C389.531 61.8064 387.314 62.3141 385.443 63.3294C383.573 64.3447 382.103 65.7608 381.035 67.5777C380.019 69.3946 379.512 71.5053 379.512 73.91C379.512 76.956 380.18 79.5477 381.516 81.6852C382.905 83.8227 384.882 85.4525 387.447 86.5747C390.066 87.6969 393.245 88.258 396.986 88.258C400.406 88.258 403.826 87.8038 407.246 86.8953C410.666 85.9334 413.738 84.5975 416.464 82.8875V92.5864C413.364 94.7239 409.811 96.3805 405.803 97.5561C401.849 98.7317 397.574 99.3195 392.978 99.3195Z" fill="#F0F2F5"/>
<path d="M432.311 52.348H480.725V98.037H465.896V56.6764L472.71 63.4897H439.765L446.098 57.7986C446.365 61.0583 446.579 64.0241 446.739 66.696C446.953 69.3144 447.06 71.6924 447.06 73.8299C447.06 82.647 445.724 89.0595 443.052 93.0674C440.38 97.0217 436.052 98.9989 430.067 98.9989C428.357 98.9989 426.727 98.8119 425.177 98.4378C423.681 98.1172 422.211 97.5294 420.768 96.6744V86.0136C421.73 86.3877 422.665 86.6816 423.574 86.8953C424.536 87.0556 425.391 87.1358 426.139 87.1358C428.811 87.1358 430.708 85.9602 431.83 83.6089C433.006 81.2042 433.593 77.2499 433.593 71.7458C433.593 69.1808 433.487 66.2952 433.273 63.0889C433.059 59.8293 432.738 56.2489 432.311 52.348Z" fill="#F0F2F5"/>
<path d="M498.142 52.348H546.557V98.037H531.728V56.6764L538.541 63.4897H505.597L511.929 57.7986C512.196 61.0583 512.41 64.0241 512.57 66.696C512.784 69.3144 512.891 71.6924 512.891 73.8299C512.891 82.647 511.555 89.0595 508.883 93.0674C506.211 97.0217 501.883 98.9989 495.898 98.9989C494.188 98.9989 492.558 98.8119 491.008 98.4378C489.512 98.1172 488.043 97.5294 486.6 96.6744V86.0136C487.562 86.3877 488.497 86.6816 489.405 86.8953C490.367 87.0556 491.222 87.1358 491.97 87.1358C494.642 87.1358 496.539 85.9602 497.661 83.6089C498.837 81.2042 499.425 77.2499 499.425 71.7458C499.425 69.1808 499.318 66.2952 499.104 63.0889C498.89 59.8293 498.57 56.2489 498.142 52.348Z" fill="#F0F2F5"/>
<path d="M597.719 98.037L595.716 81.4447L597.88 75.1925L595.716 69.0205L597.719 52.348H613.19L610.384 75.1925L613.19 98.037H597.719ZM601.407 75.1925C600.605 80.0553 599.082 84.3036 596.838 87.9374C594.593 91.5177 591.761 94.3231 588.341 96.3538C584.921 98.3309 581.074 99.3195 576.799 99.3195C572.31 99.3195 568.356 98.3042 564.936 96.2736C561.569 94.243 558.924 91.4375 557 87.8572C555.076 84.2235 554.115 80.0019 554.115 75.1925C554.115 70.3831 555.076 66.1883 557 62.608C558.924 58.9742 561.569 56.1421 564.936 54.1114C568.356 52.0808 572.31 51.0655 576.799 51.0655C581.074 51.0655 584.921 52.0808 588.341 54.1114C591.761 56.0886 594.593 58.8674 596.838 62.4477C599.136 66.028 600.659 70.2763 601.407 75.1925ZM569.184 75.1925C569.184 77.6506 569.692 79.8416 570.707 81.7653C571.722 83.6356 573.112 85.1319 574.875 86.2541C576.692 87.3228 578.776 87.8572 581.127 87.8572C583.478 87.8572 585.696 87.3228 587.78 86.2541C589.918 85.1319 591.788 83.6356 593.391 81.7653C594.994 79.8416 596.197 77.6506 596.998 75.1925C596.197 72.7344 594.994 70.5702 593.391 68.6999C591.788 66.7761 589.918 65.2799 587.78 64.2111C585.696 63.0889 583.478 62.5278 581.127 62.5278C578.776 62.5278 576.692 63.0889 574.875 64.2111C573.112 65.2799 571.722 66.7761 570.707 68.6999C569.692 70.5702 569.184 72.7344 569.184 75.1925Z" fill="#F0F2F5"/>
<path d="M616.589 98.037L635.666 67.5777L646.647 75.6735L633.742 98.037H616.589ZM692.176 98.037L679.191 75.6735L690.172 67.5777L709.329 98.037H692.176ZM670.293 85.7731L666.125 84.3303L691.214 52.348H707.967L668.69 98.037H657.228L617.871 52.348H634.704L659.793 84.3303L655.625 85.7731V52.348H670.293V85.7731Z" fill="#F0F2F5"/>
<path d="M262.032 125.155H277.181V178.619H262.032V125.155ZM238.626 118.502H300.587V131.888H238.626V118.502Z" fill="#F0F2F5"/>
<path d="M300.701 132.93H315.53V146.717L314.968 148.641V160.504L315.53 164.031V191.845H300.701V132.93ZM310.64 155.775C311.442 150.858 312.965 146.61 315.209 143.03C317.453 139.449 320.286 136.671 323.706 134.694C327.179 132.663 331.026 131.648 335.248 131.648C339.737 131.648 343.664 132.663 347.031 134.694C350.451 136.724 353.123 139.556 355.047 143.19C356.97 146.77 357.932 150.965 357.932 155.775C357.932 160.584 356.97 164.806 355.047 168.439C353.123 172.02 350.451 174.825 347.031 176.856C343.664 178.886 339.737 179.902 335.248 179.902C330.973 179.902 327.126 178.913 323.706 176.936C320.339 174.905 317.507 172.1 315.209 168.519C312.965 164.886 311.442 160.637 310.64 155.775ZM342.863 155.775C342.863 153.317 342.355 151.152 341.34 149.282C340.325 147.358 338.908 145.862 337.092 144.793C335.328 143.671 333.271 143.11 330.92 143.11C328.568 143.11 326.324 143.671 324.186 144.793C322.102 145.862 320.259 147.358 318.656 149.282C317.106 151.152 315.904 153.317 315.049 155.775C315.904 158.233 317.106 160.424 318.656 162.347C320.259 164.218 322.102 165.714 324.186 166.836C326.324 167.905 328.568 168.439 330.92 168.439C333.271 168.439 335.328 167.905 337.092 166.836C338.908 165.714 340.325 164.218 341.34 162.347C342.355 160.424 342.863 158.233 342.863 155.775Z" fill="#F0F2F5"/>
<path d="M391.647 179.902C386.197 179.902 381.307 178.886 376.979 176.856C372.704 174.825 369.337 171.993 366.879 168.359C364.421 164.725 363.192 160.477 363.192 155.614C363.192 150.858 364.367 146.69 366.719 143.11C369.07 139.53 372.303 136.724 376.418 134.694C380.586 132.663 385.288 131.648 390.525 131.648C395.869 131.648 400.464 132.823 404.312 135.174C408.159 137.526 411.125 140.839 413.209 145.114C415.293 149.389 416.335 154.412 416.335 160.183H375.135V150.805H408.159L402.789 154.172C402.629 151.66 402.014 149.549 400.945 147.839C399.93 146.076 398.567 144.74 396.857 143.831C395.147 142.869 393.117 142.389 390.766 142.389C388.201 142.389 385.983 142.896 384.113 143.912C382.242 144.927 380.773 146.343 379.704 148.16C378.689 149.977 378.181 152.087 378.181 154.492C378.181 157.538 378.849 160.13 380.185 162.267C381.574 164.405 383.552 166.035 386.117 167.157C388.735 168.279 391.914 168.84 395.655 168.84C399.075 168.84 402.495 168.386 405.915 167.477C409.335 166.516 412.408 165.18 415.133 163.47V173.169C412.034 175.306 408.48 176.963 404.472 178.138C400.518 179.314 396.243 179.902 391.647 179.902Z" fill="#F0F2F5"/>
<path d="M423.753 178.619V132.93H438.341V170.604L434.975 169.642L460.705 132.93H479.862V178.619H465.194V140.064L468.64 141.106L442.269 178.619H423.753ZM451.327 128.922C445.983 128.922 441.681 127.613 438.422 124.995C435.162 122.376 433.131 118.582 432.33 113.612H443.792C444.22 115.803 445.075 117.487 446.357 118.662C447.693 119.838 449.35 120.426 451.327 120.426C453.357 120.426 455.014 119.838 456.296 118.662C457.632 117.487 458.487 115.803 458.861 113.612H470.324C469.576 118.582 467.572 122.376 464.312 124.995C461.052 127.613 456.724 128.922 451.327 128.922Z" fill="#F0F2F5"/>
<path d="M552.912 167.477V189.761H540.087V178.619H498.806V189.761H485.901V167.477H499.207L502.173 167.718H535.357L538.083 167.477H552.912ZM495.6 132.93H544.575V175.573H529.746V137.018L536.56 143.831H502.974L508.665 138.461C509.307 140.759 509.681 142.896 509.788 144.873C509.948 146.851 510.028 148.694 510.028 150.404C510.028 157.885 508.826 163.71 506.421 167.878C504.016 172.046 500.623 174.13 496.241 174.13L490.149 169.081C494.371 166.088 496.482 158.874 496.482 147.438C496.482 145.194 496.401 142.869 496.241 140.465C496.081 138.007 495.867 135.495 495.6 132.93Z" fill="#F0F2F5"/>
</svg>
