<svg width="161" height="49" viewBox="0 0 161 49" fill="none" xmlns="http://www.w3.org/2000/svg">
<rect x="2" y="2" width="46.2207" height="46.2207" rx="2.57466" fill="white"/>
<path d="M43.4643 6.01917C43.8718 6.01917 44.2021 6.34952 44.2021 6.75703V10.3418C44.2021 10.7494 43.8718 11.0797 43.4643 11.0797H13.1978C12.7903 11.0797 12.46 11.4101 12.46 11.8176V38.4034C12.46 38.8109 12.7903 39.1412 13.1978 39.1412H42.6994C43.3123 39.1412 43.658 39.8453 43.2832 40.3303L40.5135 43.9141C40.3738 44.0949 40.1582 44.2008 39.9297 44.2008H12.4604C12.4602 44.2008 12.46 44.201 12.46 44.2013C12.46 44.2016 12.4597 44.2018 12.4595 44.2018H6.7574C6.34988 44.2018 6.01953 43.8714 6.01953 43.4639V6.75703C6.01953 6.34952 6.34988 6.01917 6.7574 6.01917H43.4643ZM40.5047 19.5332C40.365 19.7141 40.1494 19.8199 39.9209 19.8199H33.3463C32.9388 19.8199 32.6084 20.1503 32.6084 20.5578V34.2637C32.6084 34.6712 32.278 35.0016 31.8705 35.0016H26.9058C26.4983 35.0016 26.168 34.6712 26.168 34.2637V20.5578C26.168 20.1503 25.8376 19.8199 25.4301 19.8199H16.4097C16.0022 19.8199 15.6719 19.4896 15.6719 19.0821V15.4973C15.6719 15.0898 16.0022 14.7594 16.4097 14.7594H42.6908C43.3037 14.7594 43.6494 15.4634 43.2746 15.9484L40.5047 19.5332Z" fill="#13161A"/>
<path d="M70.3486 10.0265C70.2184 11.1785 69.822 12.1939 69.1594 13.0728C68.4968 13.9398 67.6212 14.6168 66.5327 15.1037C65.4441 15.5906 64.2018 15.8341 62.8056 15.8341C61.2792 15.8341 59.9363 15.5431 58.7767 14.9612C57.629 14.3792 56.7357 13.5657 56.0967 12.5205C55.4578 11.4754 55.1383 10.2581 55.1383 8.8685C55.1383 7.47894 55.4578 6.26159 56.0967 5.21646C56.7357 4.17132 57.629 3.35777 58.7767 2.77582C59.9363 2.19387 61.2792 1.90289 62.8056 1.90289C64.2018 1.90289 65.4441 2.14636 66.5327 2.6333C67.6212 3.12024 68.4968 3.79721 69.1594 4.6642C69.822 5.53119 70.2184 6.54663 70.3486 7.71054H66.9764C66.8581 7.10483 66.6155 6.5882 66.2487 6.16064C65.8938 5.73309 65.4205 5.40648 64.8289 5.18083C64.2491 4.94329 63.5747 4.82453 62.8056 4.82453C61.9182 4.82453 61.155 4.9908 60.516 5.32335C59.8771 5.64401 59.3861 6.1072 59.0429 6.7129C58.6998 7.31861 58.5282 8.03714 58.5282 8.8685C58.5282 9.69986 58.6998 10.4184 59.0429 11.0241C59.3861 11.6298 59.8771 12.0989 60.516 12.4315C61.155 12.7521 61.9182 12.9125 62.8056 12.9125C63.5747 12.9125 64.2491 12.7996 64.8289 12.574C65.4205 12.3483 65.8938 12.0217 66.2487 11.5942C66.6155 11.1666 66.8581 10.644 66.9764 10.0265H70.3486Z" fill="white"/>
<path d="M74.944 6.53476H78.2451V15.5491H74.944V6.53476ZM71.0216 5.3946H82.1852V7.9065H71.0216V5.3946Z" fill="white"/>
<path d="M88.9423 15.8341C87.7354 15.8341 86.6528 15.6085 85.6944 15.1571C84.7478 14.7058 84.0024 14.0764 83.4581 13.2688C82.9138 12.4612 82.6417 11.517 82.6417 10.4362C82.6417 9.37919 82.902 8.45282 83.4226 7.65709C83.9432 6.86136 84.6591 6.23784 85.5701 5.78653C86.493 5.33522 87.5343 5.10957 88.6938 5.10957C89.877 5.10957 90.8946 5.37085 91.7465 5.89342C92.5984 6.41599 93.2551 7.15234 93.7166 8.10246C94.178 9.05259 94.4087 10.169 94.4087 11.4517H85.2862V9.36732H92.5984L91.4093 10.1155C91.3738 9.55734 91.2377 9.08822 91.0011 8.70817C90.7763 8.31624 90.4746 8.01933 90.0959 7.81743C89.7173 7.60365 89.2677 7.49676 88.7471 7.49676C88.1791 7.49676 87.6881 7.60959 87.274 7.83524C86.8598 8.06089 86.5345 8.37562 86.2978 8.77943C86.073 9.18323 85.9606 9.65236 85.9606 10.1868C85.9606 10.8638 86.1085 11.4398 86.4043 11.9148C86.7119 12.3899 87.1497 12.7521 87.7177 13.0015C88.2974 13.251 89.0015 13.3757 89.8297 13.3757C90.587 13.3757 91.3442 13.2747 92.1015 13.0728C92.8587 12.859 93.5391 12.5621 94.1425 12.1821V14.3377C93.4563 14.8127 92.6694 15.1809 91.782 15.4422C90.9064 15.7035 89.9599 15.8341 88.9423 15.8341Z" fill="white"/>
<path d="M97.6514 5.3946H108.371V15.5491H105.088V6.35661L106.596 7.87087H99.302L100.704 6.60601C100.763 7.33049 100.811 7.98964 100.846 8.58346C100.893 9.16542 100.917 9.69392 100.917 10.169C100.917 12.1286 100.621 13.5538 100.03 14.4446C99.4381 15.3234 98.4797 15.7629 97.1545 15.7629C96.7758 15.7629 96.4149 15.7213 96.0718 15.6381C95.7405 15.5669 95.4151 15.4362 95.0957 15.2462V12.8768C95.3086 12.96 95.5157 13.0253 95.7168 13.0728C95.9298 13.1084 96.1191 13.1263 96.2848 13.1263C96.8764 13.1263 97.2964 12.865 97.5449 12.3424C97.8052 11.808 97.9354 10.9291 97.9354 9.7058C97.9354 9.13572 97.9117 8.49439 97.8644 7.7818C97.8171 7.05732 97.7461 6.26159 97.6514 5.3946Z" fill="white"/>
<path d="M112.228 5.3946H122.948V15.5491H119.664V6.35661L121.173 7.87087H113.878L115.281 6.60601C115.34 7.33049 115.387 7.98964 115.422 8.58346C115.47 9.16542 115.493 9.69392 115.493 10.169C115.493 12.1286 115.198 13.5538 114.606 14.4446C114.014 15.3234 113.056 15.7629 111.731 15.7629C111.352 15.7629 110.991 15.7213 110.648 15.6381C110.317 15.5669 109.992 15.4362 109.672 15.2462V12.8768C109.885 12.96 110.092 13.0253 110.293 13.0728C110.506 13.1084 110.696 13.1263 110.861 13.1263C111.453 13.1263 111.873 12.865 112.121 12.3424C112.382 11.808 112.512 10.9291 112.512 9.7058C112.512 9.13572 112.488 8.49439 112.441 7.7818C112.393 7.05732 112.322 6.26159 112.228 5.3946Z" fill="white"/>
<path d="M134.276 15.5491L133.833 11.8614L134.312 10.4718L133.833 9.10009L134.276 5.3946H137.702L137.08 10.4718L137.702 15.5491H134.276ZM135.093 10.4718C134.915 11.5526 134.578 12.4968 134.081 13.3044C133.584 14.1001 132.957 14.7237 132.2 15.175C131.442 15.6144 130.591 15.8341 129.644 15.8341C128.65 15.8341 127.774 15.6085 127.017 15.1571C126.272 14.7058 125.686 14.0823 125.26 13.2866C124.834 12.479 124.621 11.5407 124.621 10.4718C124.621 9.40295 124.834 8.47064 125.26 7.67491C125.686 6.8673 126.272 6.23784 127.017 5.78653C127.774 5.33522 128.65 5.10957 129.644 5.10957C130.591 5.10957 131.442 5.33522 132.2 5.78653C132.957 6.22596 133.584 6.84355 134.081 7.63928C134.59 8.43501 134.927 9.37919 135.093 10.4718ZM127.958 10.4718C127.958 11.0182 128.07 11.5051 128.295 11.9327C128.52 12.3483 128.828 12.6809 129.218 12.9303C129.62 13.1678 130.082 13.2866 130.602 13.2866C131.123 13.2866 131.614 13.1678 132.075 12.9303C132.549 12.6809 132.963 12.3483 133.318 11.9327C133.673 11.5051 133.939 11.0182 134.116 10.4718C133.939 9.92552 133.673 9.44452 133.318 9.02884C132.963 8.60128 132.549 8.26873 132.075 8.0312C131.614 7.7818 131.123 7.65709 130.602 7.65709C130.082 7.65709 129.62 7.7818 129.218 8.0312C128.828 8.26873 128.52 8.60128 128.295 9.02884C128.07 9.44452 127.958 9.92552 127.958 10.4718Z" fill="white"/>
<path d="M138.454 15.5491L142.678 8.77943L145.11 10.5787L142.252 15.5491H138.454ZM155.191 15.5491L152.316 10.5787L154.747 8.77943L158.989 15.5491H155.191ZM150.346 12.8234L149.423 12.5027L154.978 5.3946H158.687L149.991 15.5491H147.453L138.738 5.3946H142.465L148.021 12.5027L147.098 12.8234V5.3946H150.346V12.8234Z" fill="white"/>
<path d="M59.9481 21.5761H63.3025V33.4586H59.9481V21.5761ZM54.7656 20.0975H68.485V23.0725H54.7656V20.0975Z" fill="white"/>
<path d="M68.5102 23.3041H71.7936V26.3683L71.6694 26.7958V29.4324L71.7936 30.2163V36.398H68.5102V23.3041ZM70.711 28.3814C70.8885 27.2887 71.2257 26.3445 71.7227 25.5488C72.2196 24.7531 72.8467 24.1355 73.604 23.696C74.3731 23.2447 75.225 23.0191 76.1597 23.0191C77.1536 23.0191 78.0233 23.2447 78.7687 23.696C79.526 24.1474 80.1176 24.7768 80.5435 25.5844C80.9695 26.3802 81.1824 27.3125 81.1824 28.3814C81.1824 29.4502 80.9695 30.3885 80.5435 31.1961C80.1176 31.9918 79.526 32.6154 78.7687 33.0667C78.0233 33.518 77.1536 33.7436 76.1597 33.7436C75.2131 33.7436 74.3612 33.5239 73.604 33.0845C72.8585 32.6332 72.2314 32.0096 71.7227 31.2139C71.2257 30.4063 70.8885 29.4621 70.711 28.3814ZM77.8458 28.3814C77.8458 27.835 77.7334 27.354 77.5086 26.9384C77.2838 26.5108 76.9702 26.1783 76.5679 25.9407C76.1775 25.6913 75.7219 25.5666 75.2013 25.5666C74.6807 25.5666 74.1837 25.6913 73.7105 25.9407C73.249 26.1783 72.8408 26.5108 72.4858 26.9384C72.1427 27.354 71.8765 27.835 71.6872 28.3814C71.8765 28.9277 72.1427 29.4146 72.4858 29.8422C72.8408 30.2579 73.249 30.5904 73.7105 30.8398C74.1837 31.0773 74.6807 31.1961 75.2013 31.1961C75.7219 31.1961 76.1775 31.0773 76.5679 30.8398C76.9702 30.5904 77.2838 30.2579 77.5086 29.8422C77.7334 29.4146 77.8458 28.9277 77.8458 28.3814Z" fill="white"/>
<path d="M88.6477 33.7436C87.4408 33.7436 86.3581 33.518 85.3997 33.0667C84.4532 32.6154 83.7077 31.9859 83.1635 31.1783C82.6192 30.3707 82.347 29.4265 82.347 28.3457C82.347 27.2887 82.6073 26.3623 83.128 25.5666C83.6486 24.7709 84.3644 24.1474 85.2755 23.696C86.1984 23.2447 87.2396 23.0191 88.3992 23.0191C89.5824 23.0191 90.6 23.2804 91.4519 23.8029C92.3038 24.3255 92.9605 25.0619 93.4219 26.012C93.8834 26.9621 94.1141 28.0785 94.1141 29.3612H84.9915V27.2768H92.3038L91.1147 28.0251C91.0792 27.4669 90.9431 26.9977 90.7064 26.6177C90.4816 26.2258 90.1799 25.9288 89.8013 25.7269C89.4227 25.5132 88.973 25.4063 88.4524 25.4063C87.8845 25.4063 87.3934 25.5191 86.9793 25.7448C86.5652 25.9704 86.2398 26.2851 86.0032 26.6889C85.7784 27.0928 85.666 27.5619 85.666 28.0963C85.666 28.7733 85.8139 29.3493 86.1097 29.8244C86.4173 30.2994 86.8551 30.6617 87.423 30.9111C88.0028 31.1605 88.7068 31.2852 89.5351 31.2852C90.2923 31.2852 91.0496 31.1842 91.8068 30.9823C92.5641 30.7685 93.2444 30.4716 93.8479 30.0916V32.2472C93.1616 32.7222 92.3748 33.0904 91.4874 33.3517C90.6118 33.613 89.6652 33.7436 88.6477 33.7436Z" fill="white"/>
<path d="M95.7565 33.4586V23.3041H98.9867V31.6771L98.2412 31.4633L103.938 23.3041H108.18V33.4586H104.932V24.8896L105.695 25.1212L99.8563 33.4586H95.7565ZM101.862 22.4134C100.679 22.4134 99.7262 22.1224 99.0044 21.5405C98.2827 20.9585 97.833 20.1153 97.6556 19.0107H100.194C100.288 19.4977 100.478 19.8718 100.761 20.1331C101.057 20.3944 101.424 20.525 101.862 20.525C102.312 20.525 102.678 20.3944 102.962 20.1331C103.258 19.8718 103.447 19.4977 103.53 19.0107H106.068C105.903 20.1153 105.459 20.9585 104.737 21.5405C104.015 22.1224 103.057 22.4134 101.862 22.4134Z" fill="white"/>
<path d="M124.355 30.9823V35.9349H121.515V33.4586H112.375V35.9349H109.517V30.9823H112.464L113.12 31.0358H120.468L121.071 30.9823H124.355ZM111.665 23.3041H122.509V32.7816H119.226V24.2127L120.734 25.7269H113.298L114.558 24.5333C114.7 25.044 114.783 25.5191 114.806 25.9585C114.842 26.398 114.86 26.8077 114.86 27.1878C114.86 28.8505 114.593 30.145 114.061 31.0714C113.528 31.9978 112.777 32.461 111.807 32.461L110.458 31.3386C111.393 30.6735 111.86 29.0702 111.86 26.5286C111.86 26.0298 111.842 25.5132 111.807 24.9787C111.771 24.4324 111.724 23.8742 111.665 23.3041Z" fill="white"/>
<path d="M57.9741 41.6395V42.3069H56.0897V41.6395H57.9741ZM56.19 41.6395V46.3592H55.418V41.6395H56.19ZM58.6677 41.6395V46.3592H57.8956V41.6395H58.6677Z" fill="white"/>
<path d="M60.4955 42.5468V48.1738H59.7235V41.6395H60.4257L60.4955 42.5468ZM63.1346 43.7856V44.2262C63.1346 44.5984 63.0997 44.9241 63.0299 45.2033C62.963 45.4795 62.8627 45.7107 62.7289 45.8968C62.598 46.08 62.4366 46.2182 62.2447 46.3112C62.0528 46.4014 61.8332 46.4464 61.586 46.4464C61.3389 46.4464 61.1237 46.3999 60.9405 46.3069C60.7602 46.2109 60.6075 46.0728 60.4825 45.8925C60.3603 45.7122 60.2629 45.4955 60.1902 45.2425C60.1204 44.9866 60.0724 44.7002 60.0463 44.3832V43.7114C60.0724 43.377 60.1204 43.0775 60.1902 42.8129C60.26 42.5453 60.356 42.3185 60.4781 42.1324C60.6031 41.9434 60.7558 41.7994 60.9361 41.7006C61.1193 41.6017 61.333 41.5522 61.5773 41.5522C61.8303 41.5522 62.0528 41.5959 62.2447 41.6831C62.4395 41.7703 62.6024 41.9056 62.7333 42.0888C62.867 42.2691 62.9674 42.5003 63.0342 42.7823C63.1011 43.0615 63.1346 43.3959 63.1346 43.7856ZM62.3625 44.2262V43.7856C62.3625 43.5239 62.3421 43.2956 62.3014 43.1008C62.2636 42.9059 62.2025 42.7445 62.1182 42.6166C62.0339 42.4886 61.9277 42.3927 61.7998 42.3287C61.6718 42.2647 61.5177 42.2327 61.3374 42.2327C61.1833 42.2327 61.0466 42.2647 60.9274 42.3287C60.8111 42.3927 60.7107 42.4799 60.6264 42.5904C60.5421 42.698 60.4723 42.8216 60.417 42.9612C60.3618 43.0979 60.3211 43.2403 60.2949 43.3887V44.7104C60.3443 44.8965 60.4098 45.0724 60.4912 45.2382C60.5726 45.401 60.6817 45.5333 60.8183 45.6351C60.9579 45.7369 61.1338 45.7878 61.3461 45.7878C61.5235 45.7878 61.6762 45.7558 61.8041 45.6918C61.9321 45.6278 62.0368 45.5319 62.1182 45.4039C62.2025 45.2731 62.2636 45.1102 62.3014 44.9154C62.3421 44.7176 62.3625 44.4879 62.3625 44.2262Z" fill="white"/>
<path d="M63.789 44.2262V43.7769C63.789 43.4105 63.8356 43.0891 63.9286 42.8129C64.0217 42.5337 64.1511 42.3011 64.3168 42.1149C64.4826 41.9288 64.676 41.7892 64.897 41.6962C65.118 41.6002 65.355 41.5522 65.608 41.5522C65.8668 41.5522 66.1067 41.6002 66.3277 41.6962C66.5487 41.7892 66.7421 41.9288 66.9079 42.1149C67.0766 42.3011 67.2074 42.5337 67.3005 42.8129C67.3935 43.0891 67.4401 43.4105 67.4401 43.7769V44.2262C67.4401 44.5926 67.3935 44.9154 67.3005 45.1945C67.2074 45.4708 67.078 45.702 66.9123 45.8881C66.7465 46.0742 66.5531 46.2138 66.3321 46.3069C66.1111 46.3999 65.8726 46.4464 65.6167 46.4464C65.3608 46.4464 65.1224 46.3999 64.9014 46.3069C64.6803 46.2138 64.4855 46.0742 64.3168 45.8881C64.1511 45.702 64.0217 45.4708 63.9286 45.1945C63.8356 44.9154 63.789 44.5926 63.789 44.2262ZM64.5611 43.7769V44.2262C64.5611 44.485 64.5873 44.7118 64.6396 44.9066C64.692 45.1015 64.7661 45.2643 64.8621 45.3952C64.9581 45.5261 65.07 45.6249 65.198 45.6918C65.3259 45.7558 65.4655 45.7878 65.6167 45.7878C65.7912 45.7878 65.9439 45.7558 66.0747 45.6918C66.2085 45.6249 66.319 45.5261 66.4063 45.3952C66.4935 45.2643 66.5589 45.1015 66.6025 44.9066C66.6462 44.7118 66.668 44.485 66.668 44.2262V43.7769C66.668 43.5181 66.6418 43.2927 66.5895 43.1008C66.5371 42.9059 66.463 42.7431 66.367 42.6122C66.271 42.4784 66.1576 42.3796 66.0268 42.3156C65.8988 42.2487 65.7592 42.2153 65.608 42.2153C65.4597 42.2153 65.3216 42.2487 65.1936 42.3156C65.0657 42.3796 64.9537 42.4784 64.8577 42.6122C64.7647 42.7431 64.692 42.9059 64.6396 43.1008C64.5873 43.2927 64.5611 43.5181 64.5611 43.7769Z" fill="white"/>
<path d="M69.0934 45.0811L70.8034 41.6395H71.5754V46.3592H70.8034V42.9176L69.0934 46.3592H68.3257V41.6395H69.0934V45.0811Z" fill="white"/>
<path d="M74.1536 44.104H73.3902V43.6068H74.0925C74.2612 43.6068 74.3935 43.5791 74.4894 43.5239C74.5854 43.4657 74.6537 43.3858 74.6945 43.284C74.7352 43.1822 74.7555 43.063 74.7555 42.9263C74.7555 42.8041 74.7323 42.6893 74.6857 42.5817C74.6392 42.4712 74.5636 42.3825 74.4589 42.3156C74.3542 42.2458 74.2146 42.2109 74.0401 42.2109C73.8977 42.2109 73.7682 42.2444 73.6519 42.3112C73.5356 42.3752 73.444 42.4639 73.3771 42.5773C73.3102 42.6878 73.2768 42.8129 73.2768 42.9525H72.5091C72.5091 42.6646 72.5774 42.4174 72.7141 42.2109C72.8537 42.0015 73.0398 41.8401 73.2724 41.7267C73.5051 41.6133 73.761 41.5566 74.0401 41.5566C74.2728 41.5566 74.4807 41.5871 74.6639 41.6482C74.8471 41.7064 75.0027 41.7936 75.1307 41.9099C75.2586 42.0233 75.356 42.1658 75.4229 42.3374C75.4927 42.5061 75.5276 42.7024 75.5276 42.9263C75.5276 43.0862 75.4956 43.2374 75.4316 43.3799C75.3677 43.5224 75.2761 43.6489 75.1568 43.7594C75.0376 43.867 74.8922 43.9514 74.7206 44.0124C74.552 44.0735 74.3629 44.104 74.1536 44.104ZM73.3902 43.7987H74.1536C74.3862 43.7987 74.5927 43.8263 74.773 43.8816C74.9533 43.9339 75.1045 44.0124 75.2266 44.1171C75.3517 44.2218 75.4447 44.3512 75.5058 44.5053C75.5698 44.6566 75.6018 44.831 75.6018 45.0288C75.6018 45.2498 75.5639 45.449 75.4883 45.6264C75.4127 45.8009 75.3051 45.9492 75.1655 46.0713C75.0289 46.1934 74.8646 46.2865 74.6726 46.3505C74.4836 46.4144 74.2728 46.4464 74.0401 46.4464C73.7784 46.4464 73.5254 46.3941 73.2812 46.2894C73.0398 46.1847 72.8406 46.0233 72.6836 45.8052C72.5265 45.5842 72.448 45.3036 72.448 44.9633H73.2157C73.2157 45.1058 73.2492 45.2411 73.3161 45.369C73.3858 45.497 73.4818 45.6002 73.6039 45.6787C73.729 45.7572 73.8744 45.7965 74.0401 45.7965C74.2146 45.7965 74.36 45.7616 74.4763 45.6918C74.5927 45.622 74.6799 45.529 74.7381 45.4126C74.7962 45.2963 74.8253 45.1698 74.8253 45.0331C74.8253 44.8558 74.7991 44.7133 74.7468 44.6057C74.6945 44.4981 74.6145 44.4196 74.5069 44.3701C74.3993 44.3178 74.2612 44.2916 74.0925 44.2916H73.3902V43.7987Z" fill="white"/>
<path d="M78.35 44.2829H77.0894L77.0807 43.6373H78.0926C78.2933 43.6373 78.4591 43.6126 78.5899 43.5631C78.7237 43.5137 78.824 43.4395 78.8909 43.3407C78.9578 43.2418 78.9912 43.1197 78.9912 42.9743C78.9912 42.8609 78.9723 42.762 78.9345 42.6776C78.8967 42.5904 78.84 42.5192 78.7644 42.4639C78.6917 42.4057 78.6001 42.3636 78.4896 42.3374C78.3791 42.3083 78.2497 42.2938 78.1014 42.2938H77.2857V46.3592H76.518V41.6395H78.1014C78.3573 41.6395 78.587 41.6657 78.7906 41.718C78.997 41.7703 79.1715 41.8503 79.314 41.9579C79.4594 42.0626 79.5699 42.1964 79.6455 42.3592C79.724 42.5221 79.7633 42.714 79.7633 42.935C79.7633 43.0775 79.7386 43.2127 79.6891 43.3407C79.6397 43.4686 79.5656 43.582 79.4667 43.6809C79.3707 43.7798 79.2515 43.8612 79.109 43.9252C78.9665 43.9863 78.8022 44.0255 78.6161 44.043L78.35 44.2829ZM78.35 46.3592H76.8015L77.1984 45.7049H78.35C78.5274 45.7049 78.6728 45.6773 78.7862 45.622C78.8996 45.5639 78.9839 45.4824 79.0392 45.3777C79.0974 45.2701 79.1264 45.1422 79.1264 44.9939C79.1264 44.8456 79.0974 44.7191 79.0392 44.6144C78.9839 44.5068 78.8996 44.4254 78.7862 44.3701C78.6728 44.312 78.5274 44.2829 78.35 44.2829H77.3162L77.3249 43.6373H78.603L78.8734 43.8816C79.0974 43.9019 79.2849 43.9659 79.4361 44.0735C79.5903 44.1811 79.7051 44.3178 79.7807 44.4835C79.8593 44.6464 79.8985 44.8238 79.8985 45.0157C79.8985 45.2367 79.8636 45.4315 79.7938 45.6002C79.724 45.7689 79.6223 45.9099 79.4885 46.0233C79.3547 46.1338 79.1919 46.2182 78.9999 46.2763C78.808 46.3316 78.5914 46.3592 78.35 46.3592Z" fill="white"/>
<path d="M80.6097 44.2262V43.7769C80.6097 43.4105 80.6562 43.0891 80.7493 42.8129C80.8423 42.5337 80.9718 42.3011 81.1375 42.1149C81.3033 41.9288 81.4967 41.7892 81.7177 41.6962C81.9387 41.6002 82.1757 41.5522 82.4287 41.5522C82.6875 41.5522 82.9274 41.6002 83.1484 41.6962C83.3694 41.7892 83.5628 41.9288 83.7286 42.1149C83.8972 42.3011 84.0281 42.5337 84.1211 42.8129C84.2142 43.0891 84.2607 43.4105 84.2607 43.7769V44.2262C84.2607 44.5926 84.2142 44.9154 84.1211 45.1945C84.0281 45.4708 83.8987 45.702 83.7329 45.8881C83.5672 46.0742 83.3738 46.2138 83.1528 46.3069C82.9318 46.3999 82.6933 46.4464 82.4374 46.4464C82.1815 46.4464 81.943 46.3999 81.722 46.3069C81.501 46.2138 81.3062 46.0742 81.1375 45.8881C80.9718 45.702 80.8423 45.4708 80.7493 45.1945C80.6562 44.9154 80.6097 44.5926 80.6097 44.2262ZM81.3818 43.7769V44.2262C81.3818 44.485 81.408 44.7118 81.4603 44.9066C81.5126 45.1015 81.5868 45.2643 81.6828 45.3952C81.7787 45.5261 81.8907 45.6249 82.0186 45.6918C82.1466 45.7558 82.2862 45.7878 82.4374 45.7878C82.6119 45.7878 82.7645 45.7558 82.8954 45.6918C83.0292 45.6249 83.1397 45.5261 83.2269 45.3952C83.3142 45.2643 83.3796 45.1015 83.4232 44.9066C83.4668 44.7118 83.4886 44.485 83.4886 44.2262V43.7769C83.4886 43.5181 83.4625 43.2927 83.4101 43.1008C83.3578 42.9059 83.2836 42.7431 83.1877 42.6122C83.0917 42.4784 82.9783 42.3796 82.8474 42.3156C82.7195 42.2487 82.5799 42.2153 82.4287 42.2153C82.2804 42.2153 82.1422 42.2487 82.0143 42.3156C81.8863 42.3796 81.7744 42.4784 81.6784 42.6122C81.5853 42.7431 81.5126 42.9059 81.4603 43.1008C81.408 43.2927 81.3818 43.5181 81.3818 43.7769Z" fill="white"/>
<path d="M85.4823 41.6395H86.2543L86.1976 43.4061C86.1831 43.8539 86.1395 44.2407 86.0668 44.5664C85.9941 44.8921 85.901 45.1698 85.7876 45.3996C85.6742 45.6264 85.5462 45.8169 85.4037 45.971C85.2613 46.1251 85.1129 46.2545 84.9588 46.3592H84.5837L84.6011 45.7005L84.7538 45.6962C84.8381 45.5828 84.9181 45.4664 84.9937 45.3472C85.0693 45.2251 85.1377 45.0811 85.1987 44.9154C85.2598 44.7467 85.3092 44.5417 85.347 44.3003C85.3877 44.056 85.4139 43.758 85.4256 43.4061L85.4823 41.6395ZM85.6611 41.6395H88.1169V46.3592H87.3448V42.3854H85.6611V41.6395ZM84.4354 45.6962H88.6665V47.7507H87.8945V46.3592H85.2075V47.7507H84.431L84.4354 45.6962Z" fill="white"/>
<path d="M91.0091 45.7878C91.1632 45.7878 91.3028 45.7572 91.4279 45.6962C91.5558 45.6322 91.6605 45.5333 91.7419 45.3996C91.8234 45.2629 91.8699 45.0855 91.8815 44.8674H92.6056C92.594 45.1815 92.514 45.4577 92.3657 45.6962C92.2203 45.9317 92.0284 46.1164 91.7899 46.2501C91.5544 46.381 91.2941 46.4464 91.0091 46.4464C90.7038 46.4464 90.4377 46.397 90.2109 46.2981C89.987 46.1993 89.8008 46.0568 89.6525 45.8707C89.5071 45.6816 89.3981 45.4534 89.3254 45.1858C89.2527 44.9154 89.2163 44.6086 89.2163 44.2654V43.7333C89.2163 43.3901 89.2527 43.0848 89.3254 42.8172C89.3981 42.5468 89.5071 42.3185 89.6525 42.1324C89.8008 41.9434 89.987 41.7994 90.2109 41.7006C90.4377 41.6017 90.7038 41.5522 91.0091 41.5522C91.329 41.5522 91.6053 41.6206 91.8379 41.7573C92.0735 41.891 92.2567 42.0859 92.3875 42.3418C92.5213 42.5948 92.594 42.9016 92.6056 43.2622H91.8815C91.8699 43.0295 91.8277 42.8361 91.755 42.682C91.6823 42.525 91.5835 42.4087 91.4584 42.333C91.3334 42.2545 91.1836 42.2153 91.0091 42.2153C90.8056 42.2153 90.6369 42.2516 90.5031 42.3243C90.3723 42.3941 90.269 42.4959 90.1934 42.6297C90.1178 42.7634 90.064 42.9234 90.032 43.1095C90.0029 43.2956 89.9884 43.5035 89.9884 43.7333V44.2654C89.9884 44.4952 90.0029 44.7045 90.032 44.8936C90.064 45.0797 90.1164 45.2396 90.1891 45.3734C90.2647 45.5071 90.3694 45.6104 90.5031 45.6831C90.6369 45.7529 90.8056 45.7878 91.0091 45.7878Z" fill="white"/>
<path d="M95.018 41.6395V46.3592H94.2459V41.6395H95.018ZM96.3048 41.6395V42.2938H92.9766V41.6395H96.3048Z" fill="white"/>
<path d="M98.848 44.2829H97.5874L97.5787 43.6373H98.5907C98.7913 43.6373 98.9571 43.6126 99.0879 43.5631C99.2217 43.5137 99.322 43.4395 99.3889 43.3407C99.4558 43.2418 99.4892 43.1197 99.4892 42.9743C99.4892 42.8609 99.4703 42.762 99.4325 42.6776C99.3947 42.5904 99.338 42.5192 99.2624 42.4639C99.1897 42.4057 99.0981 42.3636 98.9876 42.3374C98.8771 42.3083 98.7477 42.2938 98.5994 42.2938H97.7837V46.3592H97.016V41.6395H98.5994C98.8553 41.6395 99.085 41.6657 99.2886 41.718C99.4951 41.7703 99.6695 41.8503 99.812 41.9579C99.9574 42.0626 100.068 42.1964 100.144 42.3592C100.222 42.5221 100.261 42.714 100.261 42.935C100.261 43.0775 100.237 43.2127 100.187 43.3407C100.138 43.4686 100.064 43.582 99.9647 43.6809C99.8687 43.7798 99.7495 43.8612 99.607 43.9252C99.4645 43.9863 99.3002 44.0255 99.1141 44.043L98.848 44.2829ZM98.848 46.3592H97.2995L97.6964 45.7049H98.848C99.0254 45.7049 99.1708 45.6773 99.2842 45.622C99.3976 45.5639 99.482 45.4824 99.5372 45.3777C99.5954 45.2701 99.6245 45.1422 99.6245 44.9939C99.6245 44.8456 99.5954 44.7191 99.5372 44.6144C99.482 44.5068 99.3976 44.4254 99.2842 44.3701C99.1708 44.312 99.0254 44.2829 98.848 44.2829H97.8142L97.823 43.6373H99.101L99.3715 43.8816C99.5954 43.9019 99.783 43.9659 99.9342 44.0735C100.088 44.1811 100.203 44.3178 100.279 44.4835C100.357 44.6464 100.397 44.8238 100.397 45.0157C100.397 45.2367 100.362 45.4315 100.292 45.6002C100.222 45.7689 100.12 45.9099 99.9865 46.0233C99.8527 46.1338 99.6899 46.2182 99.498 46.2763C99.306 46.3316 99.0894 46.3592 98.848 46.3592Z" fill="white"/>
<path d="M102.957 46.4464C102.675 46.4464 102.421 46.4043 102.194 46.3199C101.967 46.2356 101.774 46.1077 101.614 45.9361C101.454 45.7616 101.332 45.542 101.247 45.2774C101.163 45.0128 101.121 44.7002 101.121 44.3396V43.8074C101.121 43.3916 101.169 43.0397 101.265 42.7518C101.364 42.4639 101.496 42.2327 101.662 42.0582C101.827 41.8809 102.015 41.7529 102.224 41.6744C102.434 41.593 102.649 41.5522 102.87 41.5522C103.167 41.5522 103.42 41.6002 103.629 41.6962C103.838 41.7922 104.008 41.9347 104.139 42.1237C104.27 42.3127 104.366 42.5453 104.427 42.8216C104.491 43.0979 104.523 43.4163 104.523 43.7769V44.2262H101.574V43.5675H103.751V43.4585C103.739 43.2142 103.706 42.999 103.651 42.8129C103.598 42.6268 103.511 42.4814 103.389 42.3767C103.267 42.2691 103.094 42.2153 102.87 42.2153C102.727 42.2153 102.595 42.24 102.473 42.2894C102.354 42.336 102.251 42.4188 102.163 42.5381C102.079 42.6544 102.012 42.8158 101.963 43.0222C101.916 43.2287 101.893 43.4904 101.893 43.8074V44.3396C101.893 44.5926 101.916 44.8107 101.963 44.9939C102.012 45.1742 102.083 45.3239 102.176 45.4432C102.272 45.5595 102.389 45.6467 102.525 45.7049C102.665 45.7601 102.823 45.7878 103.001 45.7878C103.26 45.7878 103.473 45.7383 103.642 45.6395C103.811 45.5377 103.958 45.4083 104.083 45.2512L104.488 45.7354C104.404 45.8547 104.293 45.9695 104.157 46.08C104.023 46.1876 103.857 46.2763 103.66 46.3461C103.465 46.413 103.231 46.4464 102.957 46.4464Z" fill="white"/>
<path d="M107.965 43.6853V44.3396H105.963V43.6853H107.965ZM106.12 41.6395V46.3592H105.348V41.6395H106.12ZM108.593 41.6395V46.3592H107.821V41.6395H108.593Z" fill="white"/>
<path d="M112.332 43.6853V44.3396H110.329V43.6853H112.332ZM110.486 41.6395V46.3592H109.714V41.6395H110.486ZM112.96 41.6395V46.3592H112.188V41.6395H112.96Z" fill="white"/>
<path d="M116.323 45.5522V42.9917C116.323 42.8056 116.294 42.6558 116.236 42.5424C116.18 42.429 116.096 42.3461 115.983 42.2938C115.872 42.2414 115.733 42.2153 115.564 42.2153C115.401 42.2153 115.26 42.2487 115.141 42.3156C115.025 42.3825 114.934 42.4712 114.87 42.5817C114.809 42.6922 114.779 42.8143 114.779 42.9481H114.007C114.007 42.7794 114.043 42.6122 114.116 42.4465C114.191 42.2807 114.299 42.1309 114.439 41.9972C114.578 41.8605 114.745 41.7529 114.94 41.6744C115.138 41.593 115.359 41.5522 115.603 41.5522C115.894 41.5522 116.151 41.6002 116.375 41.6962C116.599 41.7892 116.775 41.9419 116.903 42.1542C117.031 42.3665 117.095 42.6486 117.095 43.0004V45.3298C117.095 45.4868 117.107 45.654 117.13 45.8314C117.156 46.0088 117.192 46.1615 117.239 46.2894V46.3592H116.441C116.403 46.2661 116.374 46.1425 116.354 45.9884C116.333 45.8314 116.323 45.686 116.323 45.5522ZM116.445 43.4977L116.454 44.0648H115.917C115.734 44.0648 115.567 44.0851 115.416 44.1258C115.267 44.1666 115.139 44.2262 115.032 44.3047C114.924 44.3803 114.841 44.4748 114.783 44.5882C114.728 44.7016 114.7 44.831 114.7 44.9764C114.7 45.1655 114.726 45.3167 114.779 45.4301C114.831 45.5406 114.91 45.6206 115.014 45.67C115.119 45.7194 115.251 45.7442 115.411 45.7442C115.606 45.7442 115.778 45.6991 115.926 45.6089C116.074 45.5188 116.189 45.4097 116.271 45.2818C116.355 45.1538 116.394 45.0346 116.388 44.9241L116.559 45.2861C116.547 45.3996 116.509 45.5231 116.445 45.6569C116.384 45.7878 116.298 45.9143 116.188 46.0364C116.077 46.1556 115.946 46.2545 115.795 46.333C115.647 46.4086 115.48 46.4464 115.294 46.4464C115.02 46.4464 114.78 46.3941 114.574 46.2894C114.37 46.1847 114.212 46.0306 114.098 45.827C113.985 45.6235 113.928 45.3719 113.928 45.0724C113.928 44.8456 113.967 44.6362 114.046 44.4443C114.125 44.2523 114.241 44.0866 114.395 43.947C114.549 43.8045 114.742 43.694 114.975 43.6155C115.211 43.537 115.483 43.4977 115.791 43.4977H116.445Z" fill="white"/>
<path d="M118.897 44.1084H119.726L118.561 46.3592H117.732L118.897 44.1084ZM119.503 41.6395H121.196V46.3592H120.428V42.2938H119.503C119.326 42.2938 119.18 42.333 119.067 42.4116C118.953 42.4872 118.871 42.586 118.818 42.7082C118.766 42.8303 118.74 42.9568 118.74 43.0877C118.74 43.2156 118.763 43.3392 118.81 43.4585C118.859 43.5748 118.935 43.6707 119.036 43.7463C119.141 43.822 119.275 43.8598 119.438 43.8598H120.62V44.5228H119.438C119.205 44.5228 118.997 44.4864 118.814 44.4137C118.634 44.341 118.479 44.2407 118.352 44.1128C118.226 43.9819 118.131 43.8292 118.064 43.6547C118 43.4774 117.968 43.2854 117.968 43.079C117.968 42.8725 118.001 42.682 118.068 42.5075C118.138 42.333 118.238 42.1804 118.369 42.0495C118.503 41.9187 118.664 41.8183 118.853 41.7485C119.042 41.6758 119.259 41.6395 119.503 41.6395Z" fill="white"/>
<path d="M124.96 41.6395V46.3592H124.188V41.6395H124.96ZM127.556 41.6395L125.658 44.3439H124.703L124.581 43.6373H125.344L126.631 41.6395H127.556ZM126.701 46.3592L125.318 44.2218L125.811 43.6373L127.669 46.3592H126.701Z" fill="white"/>
<path d="M127.975 44.2262V43.7769C127.975 43.4105 128.021 43.0891 128.114 42.8129C128.207 42.5337 128.337 42.3011 128.502 42.1149C128.668 41.9288 128.862 41.7892 129.083 41.6962C129.304 41.6002 129.541 41.5522 129.794 41.5522C130.052 41.5522 130.292 41.6002 130.513 41.6962C130.734 41.7892 130.928 41.9288 131.094 42.1149C131.262 42.3011 131.393 42.5337 131.486 42.8129C131.579 43.0891 131.626 43.4105 131.626 43.7769V44.2262C131.626 44.5926 131.579 44.9154 131.486 45.1945C131.393 45.4708 131.264 45.702 131.098 45.8881C130.932 46.0742 130.739 46.2138 130.518 46.3069C130.297 46.3999 130.058 46.4464 129.802 46.4464C129.546 46.4464 129.308 46.3999 129.087 46.3069C128.866 46.2138 128.671 46.0742 128.502 45.8881C128.337 45.702 128.207 45.4708 128.114 45.1945C128.021 44.9154 127.975 44.5926 127.975 44.2262ZM128.747 43.7769V44.2262C128.747 44.485 128.773 44.7118 128.825 44.9066C128.878 45.1015 128.952 45.2643 129.048 45.3952C129.144 45.5261 129.256 45.6249 129.384 45.6918C129.512 45.7558 129.651 45.7878 129.802 45.7878C129.977 45.7878 130.13 45.7558 130.26 45.6918C130.394 45.6249 130.505 45.5261 130.592 45.3952C130.679 45.2643 130.745 45.1015 130.788 44.9066C130.832 44.7118 130.854 44.485 130.854 44.2262V43.7769C130.854 43.5181 130.827 43.2927 130.775 43.1008C130.723 42.9059 130.649 42.7431 130.553 42.6122C130.457 42.4784 130.343 42.3796 130.212 42.3156C130.084 42.2487 129.945 42.2153 129.794 42.2153C129.645 42.2153 129.507 42.2487 129.379 42.3156C129.251 42.3796 129.139 42.4784 129.043 42.6122C128.95 42.7431 128.878 42.9059 128.825 43.1008C128.773 43.2927 128.747 43.5181 128.747 43.7769Z" fill="white"/>
<path d="M134.758 45.2861L136.018 41.6395H136.751L135.024 46.3592H134.492L132.769 41.6395H133.502L134.758 45.2861ZM133.279 41.6395V46.3592H132.511V41.6395H133.279ZM136.21 46.3592V41.6395H136.982V46.3592H136.21Z" fill="white"/>
<path d="M140.664 41.6395V42.3069H138.78V41.6395H140.664ZM138.88 41.6395V46.3592H138.108V41.6395H138.88ZM141.358 41.6395V46.3592H140.586V41.6395H141.358Z" fill="white"/>
<path d="M144.725 45.5522V42.9917C144.725 42.8056 144.696 42.6558 144.638 42.5424C144.583 42.429 144.499 42.3461 144.385 42.2938C144.275 42.2414 144.135 42.2153 143.966 42.2153C143.804 42.2153 143.662 42.2487 143.543 42.3156C143.427 42.3825 143.337 42.4712 143.273 42.5817C143.212 42.6922 143.181 42.8143 143.181 42.9481H142.409C142.409 42.7794 142.445 42.6122 142.518 42.4465C142.594 42.2807 142.701 42.1309 142.841 41.9972C142.981 41.8605 143.148 41.7529 143.343 41.6744C143.54 41.593 143.761 41.5522 144.006 41.5522C144.296 41.5522 144.554 41.6002 144.778 41.6962C145.002 41.7892 145.178 41.9419 145.306 42.1542C145.433 42.3665 145.497 42.6486 145.497 43.0004V45.3298C145.497 45.4868 145.509 45.654 145.532 45.8314C145.559 46.0088 145.595 46.1615 145.641 46.2894V46.3592H144.843C144.805 46.2661 144.776 46.1425 144.756 45.9884C144.736 45.8314 144.725 45.686 144.725 45.5522ZM144.847 43.4977L144.856 44.0648H144.32C144.136 44.0648 143.969 44.0851 143.818 44.1258C143.67 44.1666 143.542 44.2262 143.434 44.3047C143.327 44.3803 143.244 44.4748 143.186 44.5882C143.13 44.7016 143.103 44.831 143.103 44.9764C143.103 45.1655 143.129 45.3167 143.181 45.4301C143.234 45.5406 143.312 45.6206 143.417 45.67C143.521 45.7194 143.654 45.7442 143.814 45.7442C144.009 45.7442 144.18 45.6991 144.328 45.6089C144.477 45.5188 144.592 45.4097 144.673 45.2818C144.757 45.1538 144.797 45.0346 144.791 44.9241L144.961 45.2861C144.949 45.3996 144.911 45.5231 144.847 45.6569C144.786 45.7878 144.701 45.9143 144.59 46.0364C144.48 46.1556 144.349 46.2545 144.198 46.333C144.049 46.4086 143.882 46.4464 143.696 46.4464C143.423 46.4464 143.183 46.3941 142.976 46.2894C142.773 46.1847 142.614 46.0306 142.501 45.827C142.387 45.6235 142.331 45.3719 142.331 45.0724C142.331 44.8456 142.37 44.6362 142.448 44.4443C142.527 44.2523 142.643 44.0866 142.797 43.947C142.951 43.8045 143.145 43.694 143.377 43.6155C143.613 43.537 143.885 43.4977 144.193 43.4977H144.847Z" fill="white"/>
<path d="M149.205 43.6853V44.3396H147.203V43.6853H149.205ZM147.36 41.6395V46.3592H146.588V41.6395H147.36ZM149.833 41.6395V46.3592H149.061V41.6395H149.833Z" fill="white"/>
<path d="M151.722 45.0811L153.432 41.6395H154.204V46.3592H153.432V42.9176L151.722 46.3592H150.955V41.6395H151.722V45.0811Z" fill="white"/>
<path d="M156.041 44.1084H156.87L155.705 46.3592H154.876L156.041 44.1084ZM156.647 41.6395H158.34V46.3592H157.572V42.2938H156.647C156.47 42.2938 156.325 42.333 156.211 42.4116C156.098 42.4872 156.015 42.586 155.962 42.7082C155.91 42.8303 155.884 42.9568 155.884 43.0877C155.884 43.2156 155.907 43.3392 155.954 43.4585C156.003 43.5748 156.079 43.6707 156.181 43.7463C156.285 43.822 156.419 43.8598 156.582 43.8598H157.764V44.5228H156.582C156.349 44.5228 156.141 44.4864 155.958 44.4137C155.778 44.341 155.624 44.2407 155.496 44.1128C155.371 43.9819 155.275 43.8292 155.208 43.6547C155.144 43.4774 155.112 43.2854 155.112 43.079C155.112 42.8725 155.145 42.682 155.212 42.5075C155.282 42.333 155.382 42.1804 155.513 42.0495C155.647 41.9187 155.808 41.8183 155.997 41.7485C156.186 41.6758 156.403 41.6395 156.647 41.6395Z" fill="white"/>
</svg>
