<svg xmlns="http://www.w3.org/2000/svg" width="161" height="49" fill="none"><rect width="46.221" height="46.221" x="2" y="2" fill="#fff" rx="2.575"/><path fill="#13161A" d="M43.464 6.02c.408 0 .738.33.738.737v3.585c0 .407-.33.738-.738.738H13.198a.74.74 0 0 0-.738.738v26.585c0 .408.33.738.738.738h29.501c.613 0 .959.704.584 1.19l-2.77 3.583a.74.74 0 0 1-.583.287H6.757a.74.74 0 0 1-.737-.737V6.757c0-.407.33-.738.737-.738zm-2.96 13.513a.74.74 0 0 1-.583.287h-6.575a.74.74 0 0 0-.738.738v13.706c0 .407-.33.738-.737.738h-4.965a.74.74 0 0 1-.738-.738V20.558a.74.74 0 0 0-.738-.738h-9.02a.74.74 0 0 1-.738-.738v-3.585c0-.407.33-.738.738-.738h26.28c.614 0 .96.704.585 1.19z"/><path fill="#fff" d="M70.349 10.027q-.195 1.728-1.19 3.046-.993 1.3-2.626 2.03-1.633.732-3.727.731-2.29 0-4.03-.873-1.72-.873-2.68-2.44-.957-1.568-.958-3.653 0-2.084.959-3.652.958-1.567 2.68-2.44 1.74-.873 4.029-.873 2.094 0 3.727.73 1.632.73 2.626 2.031.995 1.3 1.19 3.047h-3.373a3.3 3.3 0 0 0-.727-1.55q-.532-.642-1.42-.98-.87-.356-2.023-.356-1.332 0-2.29.498-.959.481-1.473 1.39t-.515 2.155.515 2.156a3.5 3.5 0 0 0 1.473 1.408q.958.48 2.29.48 1.153 0 2.023-.338.888-.338 1.42-.98.551-.641.727-1.567zM74.944 6.535h3.301v9.014h-3.301zm-3.922-1.14h11.163v2.512H71.022zM88.942 15.834q-1.81 0-3.248-.677-1.42-.676-2.236-1.888t-.816-2.833q0-1.585.78-2.779.781-1.195 2.148-1.87 1.384-.678 3.124-.677 1.774 0 3.052.783 1.279.785 1.97 2.21.693 1.425.693 3.349h-9.123V9.367h7.312l-1.189.749q-.053-.838-.408-1.408a2.25 2.25 0 0 0-.905-.89q-.568-.321-1.349-.321-.852 0-1.473.338-.621.339-.976.944-.337.606-.337 1.408 0 1.016.443 1.728.462.712 1.314 1.087.87.374 2.112.374 1.135 0 2.272-.303a7.8 7.8 0 0 0 2.04-.89v2.155a8.2 8.2 0 0 1-2.36 1.104 9.9 9.9 0 0 1-2.84.392M97.651 5.395h10.72v10.154h-3.283V6.357l1.508 1.514h-7.294l1.402-1.265q.089 1.087.142 1.977.07.872.071 1.586 0 2.94-.887 4.276-.887 1.317-2.876 1.318a4.6 4.6 0 0 1-1.082-.125 3.2 3.2 0 0 1-.976-.392v-2.37q.32.126.62.197.32.053.569.053.886 0 1.26-.784.39-.801.39-2.636 0-.855-.07-1.924a55 55 0 0 0-.214-2.387M112.228 5.395h10.72v10.154h-3.284V6.357l1.509 1.514h-7.295l1.403-1.265q.088 1.087.141 1.977.071.872.071 1.586 0 2.94-.887 4.276-.888 1.317-2.875 1.318a4.6 4.6 0 0 1-1.083-.125 3.2 3.2 0 0 1-.976-.392v-2.37q.32.126.621.197.32.053.568.053.888 0 1.26-.784.391-.801.391-2.636 0-.855-.071-1.924a58 58 0 0 0-.213-2.387M134.276 15.55l-.443-3.689.479-1.39-.479-1.37.443-3.706h3.426l-.622 5.077.622 5.077zm.817-5.078q-.267 1.62-1.012 2.832a5.57 5.57 0 0 1-1.881 1.871q-1.136.66-2.556.66-1.491 0-2.627-.678a4.8 4.8 0 0 1-1.757-1.87q-.639-1.212-.639-2.815t.639-2.797a4.75 4.75 0 0 1 1.757-1.888q1.136-.678 2.627-.677 1.42 0 2.556.677 1.135.659 1.881 1.852.763 1.194 1.012 2.833m-7.135 0q0 .82.337 1.46.338.624.923.998a2.67 2.67 0 0 0 1.384.357q.781 0 1.473-.357.71-.375 1.243-.997.532-.642.798-1.461a4.2 4.2 0 0 0-.798-1.443 3.8 3.8 0 0 0-1.243-.998 3.05 3.05 0 0 0-1.473-.374q-.78 0-1.384.374-.585.357-.923.998-.337.624-.337 1.443M138.454 15.55l4.224-6.77 2.432 1.799-2.858 4.97zm16.737 0-2.875-4.971 2.431-1.8 4.242 6.77zm-4.845-2.727-.923-.32 5.555-7.108h3.709l-8.696 10.154h-2.538l-8.715-10.154h3.727l5.556 7.108-.923.32V5.395h3.248zM59.948 21.576h3.355V33.46h-3.355zm-5.182-1.479h13.719v2.976h-13.72zM68.51 23.304h3.284v3.064l-.125.428v2.636l.125.784v6.182H68.51zm2.201 5.077q.266-1.639 1.012-2.832.745-1.194 1.881-1.853a4.96 4.96 0 0 1 2.556-.677q1.49 0 2.609.677a4.7 4.7 0 0 1 1.774 1.888q.64 1.194.64 2.797 0 1.605-.64 2.815a4.73 4.73 0 0 1-1.774 1.87q-1.118.678-2.61.678-1.42 0-2.555-.66-1.118-.676-1.881-1.87-.746-1.212-1.012-2.833m7.135 0q0-.819-.337-1.443a2.46 2.46 0 0 0-.941-.997q-.585-.374-1.367-.374-.78 0-1.49.374-.693.356-1.225.997-.515.624-.799 1.443a4.9 4.9 0 0 0 .799 1.461q.533.624 1.224.998.71.356 1.491.356t1.367-.356q.603-.375.94-.998.338-.64.338-1.46M88.648 33.744q-1.81 0-3.248-.677-1.42-.677-2.237-1.889-.816-1.21-.816-2.832 0-1.586.781-2.78.78-1.193 2.147-1.87 1.385-.677 3.124-.677 1.775 0 3.053.784t1.97 2.209q.692 1.424.692 3.35h-9.123v-2.085h7.313l-1.19.748q-.052-.837-.408-1.407a2.26 2.26 0 0 0-.905-.891q-.567-.32-1.349-.32-.851 0-1.473.338-.621.338-.976.944-.337.606-.337 1.407 0 1.015.444 1.728.46.713 1.313 1.087.87.374 2.112.374 1.136 0 2.272-.303a7.8 7.8 0 0 0 2.04-.89v2.155a8.2 8.2 0 0 1-2.36 1.105 9.9 9.9 0 0 1-2.84.392M95.757 33.459V23.304h3.23v8.373l-.746-.214 5.697-8.159h4.242V33.46h-3.248v-8.57l.763.232-5.839 8.338zm6.105-11.046q-1.775 0-2.858-.872-1.082-.873-1.348-2.53h2.538q.142.73.567 1.122.444.392 1.101.392.674 0 1.1-.392.444-.392.568-1.122h2.538q-.248 1.657-1.331 2.53t-2.875.872M124.355 30.982v4.953h-2.84v-2.476h-9.14v2.476h-2.858v-4.953h2.947l.656.054h7.348l.603-.054zm-12.69-7.678h10.844v9.478h-3.283v-8.57l1.508 1.515h-7.436l1.26-1.194q.213.767.248 1.425.054.66.054 1.23 0 2.494-.799 3.883-.8 1.39-2.254 1.39l-1.349-1.122q1.402-.998 1.402-4.81 0-.75-.053-1.55a45 45 0 0 0-.142-1.675M57.974 41.64v.667H56.09v-.668zm-1.784 0v4.72h-.772v-4.72zm2.478 0v4.72h-.772v-4.72zM60.496 42.547v5.627h-.773v-6.535h.703zm2.639 1.239v.44q0 .558-.105.977a2 2 0 0 1-.301.694q-.196.274-.484.414-.288.135-.659.135-.37 0-.645-.14a1.3 1.3 0 0 1-.459-.413 2.3 2.3 0 0 1-.292-.65 5 5 0 0 1-.144-.86v-.672a5 5 0 0 1 .144-.898q.105-.402.288-.68.188-.285.458-.432a1.3 1.3 0 0 1 .641-.149q.38 0 .668.131.292.131.488.406.2.27.301.693.1.42.1 1.004m-.773.44v-.44q0-.393-.06-.685a1.3 1.3 0 0 0-.184-.484.8.8 0 0 0-.318-.288 1 1 0 0 0-.463-.096.85.85 0 0 0-.41.096 1 1 0 0 0-.3.261 1.5 1.5 0 0 0-.21.371q-.083.206-.122.428v1.321q.075.28.196.528.122.244.327.397.21.153.528.153.266 0 .458-.096a.8.8 0 0 0 .314-.288q.127-.196.183-.489a3.5 3.5 0 0 0 .061-.689M63.789 44.226v-.45q0-.549.14-.963.14-.42.388-.698.249-.28.58-.419.332-.144.711-.144.388 0 .72.144.33.14.58.419.254.28.392.698.14.414.14.964v.45q0 .549-.14.968a2 2 0 0 1-.388.693q-.249.28-.58.419-.331.14-.715.14t-.716-.14a1.64 1.64 0 0 1-.584-.419 2 2 0 0 1-.388-.694 3 3 0 0 1-.14-.968m.772-.45v.45q0 .389.079.68.078.293.222.49a1 1 0 0 0 .336.296.9.9 0 0 0 .419.096q.261 0 .458-.096a.85.85 0 0 0 .331-.297q.13-.196.197-.488.065-.293.065-.68v-.45q0-.388-.079-.676a1.5 1.5 0 0 0-.222-.489.91.91 0 0 0-.759-.397.9.9 0 0 0-.414.1.9.9 0 0 0-.336.297q-.14.196-.218.489a2.6 2.6 0 0 0-.079.676M69.093 45.081l1.71-3.442h.772v4.72h-.772v-3.441l-1.71 3.441h-.767v-4.72h.767zM74.154 44.104h-.764v-.497h.703a.8.8 0 0 0 .396-.083.5.5 0 0 0 .206-.24 1 1 0 0 0 .06-.358.9.9 0 0 0-.07-.344.57.57 0 0 0-.226-.266.74.74 0 0 0-.419-.105.77.77 0 0 0-.663.366.7.7 0 0 0-.1.376h-.768q0-.433.205-.742.21-.314.558-.484.35-.17.768-.17.349 0 .624.091.275.088.467.262.192.17.292.427.105.254.105.59 0 .24-.096.453a1.16 1.16 0 0 1-.711.632 1.7 1.7 0 0 1-.567.092m-.764-.305h.764q.348 0 .619.083.27.078.454.235a.96.96 0 0 1 .279.388q.096.227.096.524 0 .33-.114.597a1.2 1.2 0 0 1-.323.445q-.204.183-.492.28-.284.095-.633.095-.393 0-.759-.157a1.4 1.4 0 0 1-.597-.484q-.236-.33-.236-.842h.768q0 .214.1.406a.84.84 0 0 0 .288.31q.187.117.436.117.262 0 .436-.104a.67.67 0 0 0 .262-.28.84.84 0 0 0 .087-.379 1 1 0 0 0-.078-.427.5.5 0 0 0-.24-.236.95.95 0 0 0-.415-.078h-.702zM78.35 44.283h-1.26l-.01-.646h1.013q.3 0 .497-.074a.6.6 0 0 0 .3-.222.64.64 0 0 0 .101-.367.7.7 0 0 0-.056-.296.5.5 0 0 0-.17-.214.7.7 0 0 0-.275-.127q-.165-.043-.389-.043h-.815v4.065h-.768v-4.72h1.583q.384 0 .69.079.309.078.523.24.218.157.332.401.117.244.117.576 0 .214-.074.406a1 1 0 0 1-.222.34q-.144.148-.358.244-.213.091-.493.118zm0 2.076h-1.548l.396-.654h1.152a1 1 0 0 0 .436-.083.57.57 0 0 0 .253-.244.8.8 0 0 0 .087-.384.8.8 0 0 0-.087-.38.54.54 0 0 0-.253-.244.96.96 0 0 0-.436-.087h-1.034l.009-.646h1.278l.27.245q.336.03.563.192a1 1 0 0 1 .345.41q.117.244.117.532 0 .331-.104.584-.105.253-.305.423-.2.166-.49.253a2.4 2.4 0 0 1-.649.083M80.61 44.226v-.45q0-.549.14-.963.138-.42.388-.698.248-.28.58-.419.331-.144.71-.144.39 0 .72.144.332.14.58.419.254.28.393.698.14.414.14.964v.45q0 .549-.14.968a2 2 0 0 1-.388.693q-.25.28-.58.419-.332.14-.716.14t-.715-.14a1.65 1.65 0 0 1-.584-.419 2 2 0 0 1-.389-.694 3 3 0 0 1-.14-.968m.772-.45v.45q0 .389.078.68.08.293.223.49a1 1 0 0 0 .336.296.9.9 0 0 0 .418.096q.263 0 .458-.096a.85.85 0 0 0 .332-.297q.131-.196.196-.488a3 3 0 0 0 .066-.68v-.45q0-.388-.079-.676a1.5 1.5 0 0 0-.222-.489.9.9 0 0 0-.34-.296.9.9 0 0 0-.42-.1.9.9 0 0 0-.414.1.9.9 0 0 0-.336.296q-.139.196-.218.489a2.6 2.6 0 0 0-.078.676M85.482 41.64h.772l-.056 1.766a6.3 6.3 0 0 1-.131 1.16 3.7 3.7 0 0 1-.28.834 2.45 2.45 0 0 1-.828.96h-.375l.017-.66.153-.004a6 6 0 0 0 .24-.349q.113-.183.205-.432a3.4 3.4 0 0 0 .148-.615q.06-.366.079-.894zm.18 0h2.455v4.72h-.772v-3.975H85.66zm-1.227 4.056h4.231v2.055h-.772v-1.392h-2.687v1.392h-.776zM91.01 45.788q.23 0 .418-.092a.77.77 0 0 0 .314-.296q.122-.205.14-.533h.724q-.018.471-.24.83-.219.353-.576.553a1.6 1.6 0 0 1-.78.196q-.459 0-.8-.148a1.45 1.45 0 0 1-.557-.427 1.95 1.95 0 0 1-.328-.685 3.6 3.6 0 0 1-.109-.92v-.533q0-.514.11-.916.108-.405.327-.685.222-.284.558-.431.34-.15.798-.149.48 0 .829.205.354.201.55.585.2.38.218.92h-.724a1.5 1.5 0 0 0-.127-.58.77.77 0 0 0-.297-.349.83.83 0 0 0-.449-.118q-.305 0-.506.11a.76.76 0 0 0-.31.305q-.113.2-.161.48a4 4 0 0 0-.044.623v.532q0 .345.044.629.048.279.157.48.114.2.314.31.201.104.506.104M95.018 41.64v4.72h-.772v-4.72zm1.287 0v.654h-3.328v-.654zM98.848 44.283h-1.26l-.01-.646h1.013q.3 0 .497-.074a.6.6 0 0 0 .3-.222.64.64 0 0 0 .101-.367.7.7 0 0 0-.056-.296.5.5 0 0 0-.17-.214.7.7 0 0 0-.275-.127q-.165-.043-.389-.043h-.815v4.065h-.768v-4.72h1.583q.384 0 .69.079.309.078.523.24.218.157.332.401.117.244.117.576 0 .214-.074.406a1 1 0 0 1-.222.34q-.144.148-.358.244-.214.091-.493.118zm0 2.076h-1.549l.397-.654h1.152a1 1 0 0 0 .436-.083.57.57 0 0 0 .253-.244.8.8 0 0 0 .087-.384.8.8 0 0 0-.087-.38.54.54 0 0 0-.253-.244.96.96 0 0 0-.436-.087h-1.034l.009-.646h1.278l.27.245q.336.03.563.192.231.16.345.41.118.244.118.532 0 .331-.105.584t-.305.423a1.4 1.4 0 0 1-.489.253 2.4 2.4 0 0 1-.65.083M102.957 46.446q-.423 0-.763-.126a1.5 1.5 0 0 1-.58-.384 1.75 1.75 0 0 1-.367-.659 3.1 3.1 0 0 1-.126-.937v-.533q0-.623.144-1.055.148-.432.397-.694a1.5 1.5 0 0 1 .562-.384q.315-.122.646-.122.445 0 .759.144.313.144.51.428.197.283.288.698.096.414.096.955v.45h-2.949v-.66h2.177v-.108a2.8 2.8 0 0 0-.1-.646.87.87 0 0 0-.262-.436q-.183-.162-.519-.162-.214 0-.397.074a.7.7 0 0 0-.31.25 1.4 1.4 0 0 0-.2.483q-.07.31-.07.785v.533q0 .379.07.654.074.27.213.45a.9.9 0 0 0 .349.26q.21.084.476.084.388 0 .641-.148.254-.153.441-.389l.405.484a1.688 1.688 0 0 1-.828.61q-.292.101-.703.101M107.965 43.685v.655h-2.002v-.655zm-1.845-2.046v4.72h-.772v-4.72zm2.473 0v4.72h-.772v-4.72zM112.332 43.685v.655h-2.003v-.655zm-1.846-2.046v4.72h-.772v-4.72zm2.474 0v4.72h-.772v-4.72zM116.323 45.552v-2.56a1 1 0 0 0-.087-.45.52.52 0 0 0-.253-.248 1 1 0 0 0-.419-.079.85.85 0 0 0-.423.1.7.7 0 0 0-.271.267.75.75 0 0 0-.091.366h-.772q0-.253.109-.502a1.4 1.4 0 0 1 .323-.449q.208-.204.501-.323.297-.122.663-.122.436 0 .772.144.336.14.528.458.192.319.192.846v2.33q0 .235.035.501.039.266.109.458v.07h-.798a1.5 1.5 0 0 1-.087-.37 3 3 0 0 1-.031-.437m.122-2.054.009.567h-.537q-.274 0-.501.06-.224.062-.384.18a.8.8 0 0 0-.249.283.9.9 0 0 0-.083.388q0 .284.079.454.079.165.235.24.157.075.397.074a.97.97 0 0 0 .515-.135q.222-.136.345-.327a.6.6 0 0 0 .117-.358l.171.362a1.2 1.2 0 0 1-.114.37q-.092.197-.257.38-.167.18-.393.297a1.1 1.1 0 0 1-.501.113q-.411 0-.72-.157a1.12 1.12 0 0 1-.476-.462q-.17-.305-.17-.755 0-.34.118-.628.118-.287.349-.497.23-.214.58-.332.354-.117.816-.117zM118.897 44.108h.829l-1.165 2.251h-.829zm.606-2.468h1.693v4.72h-.768v-4.066h-.925a.75.75 0 0 0-.436.118.67.67 0 0 0-.249.296 1.002 1.002 0 0 0-.008.75.7.7 0 0 0 .226.288.67.67 0 0 0 .402.114h1.182v.663h-1.182a1.7 1.7 0 0 1-.624-.11 1.4 1.4 0 0 1-.462-.3 1.35 1.35 0 0 1-.288-.458 1.7 1.7 0 0 1-.096-.576q0-.31.1-.572.105-.261.301-.457.2-.197.484-.301.284-.11.65-.11M124.96 41.64v4.72h-.772v-4.72zm2.596 0-1.898 2.704h-.955l-.122-.707h.763l1.287-1.998zm-.855 4.72-1.383-2.138.493-.585 1.858 2.722zM127.975 44.226v-.45q0-.549.139-.963.14-.42.388-.698.25-.28.581-.419.332-.144.711-.144.387 0 .719.144.332.14.581.419.252.28.392.698.14.414.14.964v.45q0 .549-.14.968a2 2 0 0 1-.388.693 1.6 1.6 0 0 1-.58.419q-.332.14-.716.14t-.715-.14a1.65 1.65 0 0 1-.585-.419 2 2 0 0 1-.388-.694 3 3 0 0 1-.139-.968m.772-.45v.45q0 .389.078.68.08.293.223.49a1 1 0 0 0 .336.296.9.9 0 0 0 .418.096q.263 0 .458-.096a.85.85 0 0 0 .332-.297q.131-.196.196-.488.066-.293.066-.68v-.45a2.6 2.6 0 0 0-.079-.676 1.5 1.5 0 0 0-.222-.489.9.9 0 0 0-.341-.296.9.9 0 0 0-.418-.1.9.9 0 0 0-.415.1.9.9 0 0 0-.336.296 1.5 1.5 0 0 0-.218.489 2.6 2.6 0 0 0-.078.676M134.758 45.286l1.26-3.647h.733l-1.727 4.72h-.532l-1.723-4.72h.733zm-1.479-3.647v4.72h-.768v-4.72zm2.931 4.72v-4.72h.772v4.72zM140.664 41.64v.667h-1.884v-.668zm-1.784 0v4.72h-.772v-4.72zm2.478 0v4.72h-.772v-4.72zM144.725 45.552v-2.56a1 1 0 0 0-.087-.45.5.5 0 0 0-.253-.248 1 1 0 0 0-.419-.079.85.85 0 0 0-.423.1.7.7 0 0 0-.27.267.75.75 0 0 0-.092.366h-.772q0-.253.109-.502.113-.248.323-.449.21-.204.502-.323.296-.122.663-.122.435 0 .772.144.336.14.528.458.19.319.191.846v2.33q0 .235.035.501.04.266.109.458v.07h-.798a1.5 1.5 0 0 1-.087-.37 4 4 0 0 1-.031-.437m.122-2.054.009.567h-.536q-.276 0-.502.06-.222.062-.384.18a.8.8 0 0 0-.248.283.9.9 0 0 0-.083.388q0 .284.078.454.079.165.236.24t.397.074a.97.97 0 0 0 .514-.135q.224-.136.345-.327a.6.6 0 0 0 .118-.358l.17.362a1.2 1.2 0 0 1-.114.37q-.091.197-.257.38-.165.18-.392.297a1.1 1.1 0 0 1-.502.113q-.41 0-.72-.157a1.12 1.12 0 0 1-.475-.462q-.17-.305-.17-.755 0-.34.117-.628.118-.287.349-.497.232-.214.58-.332.354-.117.816-.117zM149.205 43.685v.655h-2.002v-.655zm-1.845-2.046v4.72h-.772v-4.72zm2.473 0v4.72h-.772v-4.72zM151.722 45.081l1.71-3.442h.772v4.72h-.772v-3.441l-1.71 3.441h-.767v-4.72h.767zM156.041 44.108h.829l-1.165 2.251h-.829zm.606-2.468h1.693v4.72h-.768v-4.066h-.925a.75.75 0 0 0-.436.118.67.67 0 0 0-.249.296 1.002 1.002 0 0 0-.008.75.7.7 0 0 0 .227.288.67.67 0 0 0 .401.114h1.182v.663h-1.182a1.7 1.7 0 0 1-.624-.11 1.4 1.4 0 0 1-.462-.3 1.4 1.4 0 0 1-.288-.458 1.7 1.7 0 0 1-.096-.576q0-.31.1-.572.105-.261.301-.457.2-.197.484-.301.284-.11.65-.11"/></svg>