<svg xmlns="http://www.w3.org/2000/svg" width="83" height="83" fill="none"><path fill="#9EADBF" d="m39.733 13.043-1.843 4.208c-.954.058-1.904.178-2.842.36l-2.82-3.64-3.038 1.032-.015 4.632a22 22 0 0 0-3.686 2.395l-4.295-1.933-2.198 2.338 2.198 4.17c-.701 1-1.318 2.057-1.843 3.16l-4.715.129-.957 3.061 3.807 2.804a22 22 0 0 0-.277 3.433l-4.227 2.142.443 3.178 4.64.908q.416 1.458 1.029 2.846l-3.058 3.796 1.707 2.717 4.753-1.113q.45.531.934 1.033 1.01 1.045 2.146 1.953l-.923 4.76 2.778 1.605 3.628-3.16c1.039.417 2.108.754 3.198 1.007l1.185 4.65 3.197.261 1.923-4.386a22 22 0 0 0 3.954-.598l3.054 3.539 2.978-1.192-.087-1.794-6.952-5.271a17.3 17.3 0 0 1-6.183.416c-3.845-.434-7.54-2.17-10.44-5.17-6.629-6.855-6.44-17.76.416-24.388a17.3 17.3 0 0 1 11.867-4.886 17.1 17.1 0 0 1 12.526 5.23c5.562 5.754 6.32 14.409 2.369 20.96l3.871 2.937a22 22 0 0 0 1.302-2.346l4.68-.129.958-3.06-3.78-2.786c.182-1.145.275-2.303.276-3.462l4.2-2.135-.442-3.178-4.636-.909a22 22 0 0 0-1.544-3.89l2.763-3.826-1.847-2.622-4.548 1.32q-.086-.091-.17-.181a22 22 0 0 0-2.294-2.067l.87-4.495-2.778-1.604-3.45 3.004c-1.118-.45-2.265-.8-3.43-1.06l-1.13-4.442zM32.69 31.631a8.5 8.5 0 0 0-3.632.881l5.475 4.156c1.657 1.256 2.126 3.644.855 5.32s-3.712 1.93-5.392.655l-5.472-4.151c-.56 3.002.5 6.183 3.1 8.155 2.33 1.767 5.32 2.098 7.897 1.173l.579-.209.488.371 16.37 12.42.489.371-.042.613c-.198 2.73.92 5.523 3.25 7.292 2.6 1.971 5.952 2.135 8.693.787l-5.472-4.15c-1.68-1.276-2.093-3.695-.821-5.37 1.271-1.677 3.698-1.866 5.354-.61l5.472 4.151c.56-3-.497-6.183-3.095-8.154a8.36 8.36 0 0 0-7.867-1.215l-.576.204-.488-.371-16.37-12.42-.488-.37.041-.61a8.36 8.36 0 0 0-3.288-7.246 8.18 8.18 0 0 0-5.06-1.673m5.276 10.929L57.81 57.617l-1.366 1.805L36.596 44.36z"/></svg>