<svg width="83" height="83" viewBox="0 0 83 83" fill="none" xmlns="http://www.w3.org/2000/svg">
<path d="M39.7328 13.043L37.8897 17.251C36.9357 17.3091 35.9864 17.4292 35.048 17.6106L32.2287 13.9701L29.19 15.0032L29.1748 19.6351C27.8876 20.2967 26.654 21.0967 25.4887 22.0303L21.1942 20.0967L18.9955 22.4354L21.194 26.6055C20.4926 27.6054 19.8762 28.6624 19.3512 29.7653L14.6361 29.8939L13.6787 32.9551L17.4857 35.7594C17.3034 36.8953 17.2144 38.043 17.2093 39.1917L12.9824 41.3335L13.4251 44.5122L18.0646 45.4204C18.3421 46.3914 18.686 47.3422 19.0939 48.2661L16.0364 52.0618L17.743 54.7787L22.4959 53.6662C22.7967 54.0201 23.1083 54.3646 23.4305 54.6991C24.1033 55.3952 24.82 56.0474 25.5763 56.6517L24.653 61.4123L27.4306 63.0168L31.0595 59.857C32.0979 60.2743 33.167 60.6109 34.2573 60.8635L35.4418 65.5142L38.6393 65.7754L40.5616 61.3894C41.89 61.3095 43.2141 61.1109 44.5161 60.7914L47.5701 64.3298L50.5481 63.1378L50.4609 61.344L43.5094 56.0728C41.4857 56.5844 39.3872 56.7214 37.326 56.4889C33.4808 56.0553 29.7855 54.3189 26.8856 51.3199C20.2571 44.4643 20.4466 33.559 27.3019 26.9308C30.6223 23.7203 34.8932 22.0916 39.1691 22.0454C43.721 21.9963 48.277 23.7403 51.6948 27.2751C57.2572 33.0285 58.0154 41.6835 54.0636 48.2358L57.935 51.1724C58.4164 50.4176 58.8511 49.6341 59.2367 48.8262L63.9176 48.6974L64.875 45.6362L61.0948 42.851C61.2773 41.7059 61.3696 40.5481 61.3709 39.3885L65.5714 37.2542L65.1288 34.0755L60.4933 33.1673C60.1032 31.8245 59.5863 30.522 58.9494 29.2772L61.7115 25.4513L59.8648 22.8288L55.3166 24.1494C55.2594 24.0889 55.2039 24.0275 55.1461 23.9678C54.4301 23.2271 53.6639 22.5367 52.8529 21.9015L53.7233 17.4059L50.9453 15.8015L47.4941 18.8063C46.3769 18.3567 45.2295 18.0067 44.0656 17.7467L42.9342 13.304L39.7328 13.043ZM32.6904 31.6309C31.4378 31.6451 30.1963 31.9527 29.0576 32.5124L34.5335 36.6676C36.1896 37.9241 36.6593 40.312 35.3884 41.9881C34.1172 43.6653 31.6761 43.9174 29.9961 42.643L24.5241 38.4917C23.9638 41.4939 25.0248 44.6751 27.6234 46.6466C29.9538 48.4142 32.9447 48.7452 35.5211 47.8198L36.0999 47.6115L36.588 47.9824L52.9586 60.4023L53.4466 60.773L53.405 61.3861C53.2067 64.1168 54.3241 66.9092 56.6556 68.678C59.2543 70.6494 62.6068 70.8129 65.3477 69.4651L59.876 65.3141C58.1959 64.0394 57.7832 61.62 59.055 59.9443C60.3264 58.2683 62.7528 58.0788 64.4094 59.3349L69.8814 63.4864C70.4403 60.4852 69.3837 57.3025 66.7858 55.3315C64.4471 53.5565 61.4799 53.2048 58.9186 54.1165L58.3434 54.3209L57.8554 53.95L41.4847 41.5304L40.9967 41.1595L41.0384 40.5504C41.2261 37.8395 40.0878 35.0777 37.7498 33.3035C36.2309 32.1512 34.4534 31.6109 32.6906 31.631L32.6904 31.6309ZM37.9656 42.5596L57.8099 57.6169L56.4437 59.4219L36.5957 44.3608L37.9656 42.5596Z" fill="#9EADBF"/>
</svg>
