<svg xmlns="http://www.w3.org/2000/svg" width="83" height="83" fill="none"><path fill="#9EADBF" d="M60.583 21.509H44.91c-1.076 0-2.583.64-3.344 1.42l-19.432 19.93a2 2 0 0 0-.425.653 2.06 2.06 0 0 0 .425 2.19l16.82 17.252c.182.186.398.334.636.436a1.92 1.92 0 0 0 2.136-.436l19.432-19.931c.763-.782 1.385-2.326 1.385-3.43V23.519c0-.533-.207-1.044-.574-1.42a1.94 1.94 0 0 0-1.386-.59m-9.795 16.075a3.8 3.8 0 0 1-1.5-.306 3.9 3.9 0 0 1-1.272-.872 4 4 0 0 1-.849-1.305 4.1 4.1 0 0 1 .001-3.077 4 4 0 0 1 .85-1.304c.364-.373.796-.669 1.272-.87a3.8 3.8 0 0 1 1.5-.306 3.87 3.87 0 0 1 2.771 1.178 4.07 4.07 0 0 1 1.148 2.843 4.07 4.07 0 0 1-1.15 2.843 3.87 3.87 0 0 1-2.771 1.176"/><path fill="#9EADBF" d="M14.529 44.282 37.322 21.51H33.97c-1.105 0-2.652.64-3.432 1.42L10.59 42.859a2.01 2.01 0 0 0 0 2.843l17.266 17.252a2.013 2.013 0 0 0 2.845 0l1.26-1.26z"/></svg>