<svg width="83" height="83" viewBox="0 0 83 83" fill="none" xmlns="http://www.w3.org/2000/svg">
<path d="M60.5834 21.5088H44.91C43.8337 21.5088 42.3265 22.1491 41.5663 22.9288L22.1338 42.8595C21.9518 43.0461 21.8074 43.2677 21.7088 43.5116C21.6103 43.7555 21.5596 44.0169 21.5596 44.2808C21.5596 44.5448 21.6103 44.8062 21.7088 45.0501C21.8074 45.294 21.9518 45.5156 22.1338 45.7022L38.9541 62.9537C39.136 63.1404 39.352 63.2885 39.5898 63.3896C39.8276 63.4907 40.0825 63.5427 40.3399 63.5427C40.5973 63.5427 40.8521 63.4907 41.0899 63.3896C41.3277 63.2885 41.5437 63.1404 41.7257 62.9537L61.1581 43.0229C61.9209 42.2406 62.5426 40.6974 62.5426 39.5935V23.5182C62.5426 22.9853 62.3362 22.4742 61.9688 22.0973C61.6014 21.7205 61.103 21.5088 60.5834 21.5088ZM50.7875 37.5841C50.2728 37.584 49.7631 37.4798 49.2876 37.2776C48.8121 37.0754 48.3801 36.7791 48.0163 36.4057C47.6524 36.0323 47.3639 35.589 47.167 35.1012C46.9702 34.6134 46.869 34.0905 46.8692 33.5626C46.8693 33.0347 46.9709 32.5119 47.168 32.0243C47.3652 31.5366 47.654 31.0935 48.0181 30.7203C48.3822 30.3471 48.8144 30.0512 49.2901 29.8493C49.7657 29.6474 50.2754 29.5436 50.7901 29.5438C51.8297 29.5441 52.8265 29.968 53.5614 30.7222C54.2962 31.4764 54.7089 32.4991 54.7085 33.5653C54.7082 34.6315 54.2949 35.6539 53.5595 36.4076C52.8242 37.1613 51.8271 37.5845 50.7875 37.5841Z" fill="#9EADBF"/>
<path d="M14.5287 44.2822L37.322 21.5088H33.9701C32.8653 21.5088 31.318 22.1491 30.5377 22.9288L10.5895 42.8595C10.4026 43.0461 10.2544 43.2677 10.1532 43.5116C10.0521 43.7555 10 44.0169 10 44.2808C10 44.5448 10.0521 44.8062 10.1532 45.0501C10.2544 45.294 10.4026 45.5156 10.5895 45.7022L27.8561 62.9537C28.0429 63.1404 28.2647 63.2885 28.5087 63.3896C28.7528 63.4907 29.0145 63.5427 29.2787 63.5427C29.5429 63.5427 29.8045 63.4907 30.0486 63.3896C30.2927 63.2885 30.5145 63.1404 30.7013 62.9537L31.9616 61.6945L14.5287 44.2822Z" fill="#9EADBF"/>
</svg>
