<svg width="83" height="83" viewBox="0 0 83 83" fill="none" xmlns="http://www.w3.org/2000/svg">
<path d="M58.5495 63.2002H42.7395C43.2459 62.2165 43.652 61.1832 43.9578 60.1002H58.5495C58.9123 60.1004 59.2636 59.9732 59.5423 59.741C59.821 59.5087 60.0094 59.1861 60.0747 58.8292L60.0995 58.5502V44.6002C60.0996 44.2375 59.9725 43.8861 59.7403 43.6074C59.508 43.3287 59.1854 43.1403 58.8285 43.075L58.5495 43.0502H43.0495V48.3388C42.2731 46.6508 41.2259 45.101 39.9495 43.7508V43.0502H39.252C37.9018 41.7738 36.3521 40.7267 34.664 39.9502H39.9495V24.4502C39.9499 24.1341 39.8536 23.8253 39.6735 23.5655C39.4935 23.3056 39.2382 23.107 38.942 22.9963L38.6785 22.925L38.3995 22.9002H24.4495C24.0867 22.9001 23.7354 23.0272 23.4567 23.2595C23.178 23.4917 22.9896 23.8144 22.9243 24.1712L22.8995 24.4502V39.0419C21.8187 39.3499 20.7853 39.756 19.7995 40.2602V24.4502C19.7996 23.2943 20.2302 22.1798 21.0073 21.3241C21.7845 20.4685 22.8525 19.9329 24.0031 19.8219L24.4495 19.8002H38.3995C39.555 19.8002 40.669 20.2304 41.5247 21.0069C42.3803 21.7834 42.9161 22.8507 43.0278 24.0007L43.0495 24.4502V25.2376L49.8354 18.2037C50.6352 17.3743 51.7144 16.8713 52.8639 16.7922C54.0134 16.7132 55.1514 17.0637 56.0571 17.7759L56.4167 18.089L64.9665 26.5365C65.7867 27.3481 66.2758 28.4357 66.3389 29.5878C66.4019 30.74 66.0343 31.8744 65.3075 32.7706L64.9882 33.1302L57.8272 39.9502H58.5495C59.7055 39.9494 60.8203 40.3793 61.6766 41.1559C62.5329 41.9325 63.0692 43.0002 63.1809 44.1507L63.1995 44.6002V58.5502C63.1995 59.7057 62.7694 60.8198 61.9929 61.6754C61.2163 62.531 60.1491 63.0668 58.999 63.1785L58.5495 63.2002ZM43.0495 34.4012V39.9502H48.5985L43.0495 34.4012ZM54.2808 20.3365C54.0196 20.078 53.6757 19.9198 53.3094 19.8898C52.9432 19.8597 52.578 19.9597 52.2782 20.1722L52.0674 20.3582L43.9578 28.7685C43.7131 29.0224 43.5622 29.352 43.5301 29.7031C43.498 30.0543 43.5865 30.4058 43.7811 30.6998L43.9764 30.9416L52.086 39.0481C52.3343 39.2968 52.6598 39.4538 53.009 39.4932C53.3583 39.5326 53.7105 39.4522 54.008 39.2651L54.2529 39.076L62.7996 30.9323C63.0545 30.6743 63.2108 30.3351 63.2414 29.9737C63.272 29.6124 63.1749 29.2517 62.967 28.9545L62.7872 28.7406L54.2808 20.3365ZM20.0041 45.9704C20.2274 46.766 20.2894 47.5981 20.1864 48.418C20.0835 49.2379 19.8177 50.0289 19.4047 50.7445C18.9917 51.4602 18.4398 52.0861 17.7815 52.5854C17.1232 53.0848 16.3716 53.4475 15.5711 53.6522L14.1389 54.018C14.0354 55.0659 14.0458 56.122 14.1699 57.1676L15.2549 57.4249C16.0768 57.6193 16.8503 57.9795 17.528 58.4835C18.2057 58.9875 18.7733 59.6247 19.196 60.3559C19.6186 61.0871 19.8874 61.8969 19.9859 62.7357C20.0843 63.5746 20.0104 64.4246 19.7685 65.2338L19.3748 66.542C20.1746 67.1765 21.0375 67.7118 21.9633 68.1478L22.9708 67.0814C23.5508 66.4673 24.2502 65.9781 25.0261 65.644C25.802 65.3099 26.6379 65.1378 27.4827 65.1384C28.3274 65.139 29.1631 65.3122 29.9385 65.6474C30.7139 65.9826 31.4127 66.4727 31.9918 67.0876L33.0365 68.1974C33.9459 67.7779 34.7953 67.2633 35.5847 66.6536L35.1011 64.93C34.8774 64.1343 34.8151 63.3018 34.9178 62.4816C35.0205 61.6614 35.2861 60.87 35.6992 60.154C36.1122 59.438 36.6643 58.8118 37.3229 58.3122C37.9814 57.8127 38.7333 57.4499 39.5341 57.2451L40.9601 56.8824C41.0639 55.8335 41.0535 54.7764 40.9291 53.7297L39.8503 53.4755C39.0281 53.2812 38.2542 52.9209 37.5763 52.4167C36.8983 51.9125 36.3306 51.275 35.9079 50.5435C35.4852 49.8119 35.2165 49.0017 35.1183 48.1625C35.0201 47.3233 35.0944 46.4729 35.3367 45.6635L35.7273 44.3584C34.9288 43.7249 34.0603 43.1851 33.1388 42.7495L32.1313 43.8159C31.5515 44.4303 30.8523 44.9197 30.0766 45.2541C29.3008 45.5885 28.4649 45.7608 27.6202 45.7605C26.7754 45.7602 25.9396 45.5873 25.1641 45.2524C24.3886 44.9175 23.6897 44.4276 23.1103 43.8128L22.0656 42.703C21.1624 43.12 20.3087 43.6368 19.5205 44.2437L20.0041 45.9704ZM27.5495 58.5502C26.7274 58.5502 25.9389 58.2236 25.3575 57.6423C24.7761 57.0609 24.4495 56.2724 24.4495 55.4502C24.4495 54.6281 24.7761 53.8396 25.3575 53.2582C25.9389 52.6768 26.7274 52.3502 27.5495 52.3502C28.3717 52.3502 29.1602 52.6768 29.7416 53.2582C30.3229 53.8396 30.6495 54.6281 30.6495 55.4502C30.6495 56.2724 30.3229 57.0609 29.7416 57.6423C29.1602 58.2236 28.3717 58.5502 27.5495 58.5502Z" fill="#9EADBF"/>
</svg>
