<svg xmlns="http://www.w3.org/2000/svg" width="83" height="83" fill="none"><path fill="#9EADBF" d="M58.55 63.2H42.74q.759-1.475 1.218-3.1H58.55a1.55 1.55 0 0 0 1.525-1.27l.024-.28V44.6a1.55 1.55 0 0 0-1.27-1.525l-.28-.025h-15.5v5.289a17 17 0 0 0-3.1-4.588v-.7h-.697a17 17 0 0 0-4.588-3.1h5.285v-15.5a1.55 1.55 0 0 0-1.007-1.455l-.264-.071-.278-.025H24.45a1.55 1.55 0 0 0-1.526 1.271l-.024.28v14.59q-1.622.463-3.1 1.22V24.45a4.65 4.65 0 0 1 4.203-4.63l.447-.02H38.4a4.65 4.65 0 0 1 4.628 4.2l.022.45v.787l6.785-7.034a4.65 4.65 0 0 1 6.222-.428l.36.313 8.55 8.448a4.65 4.65 0 0 1 .34 6.234l-.319.36-7.16 6.82h.721a4.65 4.65 0 0 1 4.632 4.2l.019.45v13.95a4.65 4.65 0 0 1-4.201 4.627zm-15.5-28.799v5.55h5.549zm11.23-14.065a1.56 1.56 0 0 0-2.002-.164l-.21.186-8.11 8.41a1.55 1.55 0 0 0-.177 1.932l.195.242 8.11 8.106a1.55 1.55 0 0 0 1.922.217l.245-.189 8.547-8.144a1.55 1.55 0 0 0 .167-1.977l-.18-.214zM20.005 45.97a6.2 6.2 0 0 1-4.433 7.682l-1.432.366a14.6 14.6 0 0 0 .03 3.15l1.086.257a6.2 6.2 0 0 1 4.513 7.809l-.393 1.308a13.2 13.2 0 0 0 2.588 1.606l1.008-1.067a6.2 6.2 0 0 1 9.02.007l1.045 1.11q1.365-.63 2.549-1.544L35.1 64.93a6.2 6.2 0 0 1 4.433-7.685l1.426-.363a14.6 14.6 0 0 0-.03-3.152l-1.08-.255a6.2 6.2 0 0 1-4.513-7.812l.39-1.305a13.3 13.3 0 0 0-2.588-1.608l-1.008 1.066a6.2 6.2 0 0 1-9.02-.003l-1.045-1.11c-.904.417-1.757.934-2.546 1.54zm7.545 12.58a3.1 3.1 0 1 1 0-6.2 3.1 3.1 0 0 1 0 6.2"/></svg>