<svg width="83" height="83" viewBox="0 0 83 83" fill="none" xmlns="http://www.w3.org/2000/svg">
<path d="M60.2714 36.833C60.0166 37.2096 59.8657 37.6468 59.8339 38.1004C59.8022 38.554 59.8907 39.008 60.0906 39.4164C60.7305 40.9133 61.1817 42.4839 61.4339 44.0922C62.0989 48.2517 61.477 52.5152 59.6514 56.3114C59.4297 56.7278 59.0983 57.0755 58.6929 57.3169C58.2876 57.5582 57.824 57.684 57.3523 57.6805H24.6731C24.1987 57.6815 23.7332 57.5519 23.3277 57.3058C22.9221 57.0597 22.5921 56.7067 22.3739 56.2855C20.7203 52.9309 20.008 49.1904 20.3129 45.4628C20.6179 41.7352 21.9286 38.1602 24.1055 35.119C26.2824 32.0777 29.2437 29.6842 32.6739 28.1936C36.1041 26.7029 39.8744 26.1711 43.5831 26.6547C45.4595 26.8756 47.2949 27.3627 49.0339 28.1014C49.4424 28.3012 49.8963 28.3898 50.3499 28.358C50.8035 28.3263 51.2407 28.1754 51.6173 27.9205C52.0096 27.6621 52.3241 27.3015 52.5267 26.8776C52.7294 26.4537 52.8126 25.9826 52.7674 25.5149C52.7223 25.0472 52.5504 24.6007 52.2704 24.2235C51.9903 23.8462 51.6127 23.5525 51.1781 23.3739C46.1876 21.234 40.6497 20.721 35.3511 21.9078C30.0524 23.0946 25.2625 25.9209 21.6616 29.9851C18.0607 34.0493 15.832 39.1448 15.2921 44.5478C14.7522 49.9509 15.9285 55.3866 18.6539 60.083C19.1048 60.8639 19.7521 61.5132 20.5316 61.9664C21.3111 62.4196 22.1956 62.6609 23.0973 62.6664H58.8764C59.7869 62.67 60.6821 62.433 61.4714 61.9793C62.2608 61.5257 62.9162 60.8715 63.3714 60.083C65.3667 56.6251 66.5335 52.7518 66.78 48.767C67.0265 44.7823 66.3461 40.7947 64.7923 37.1172C64.5955 36.6981 64.2896 36.3396 63.9068 36.0792C63.5239 35.8187 63.0781 35.666 62.616 35.637C62.1538 35.6079 61.6924 35.7036 61.28 35.914C60.8675 36.1245 60.5192 36.4419 60.2714 36.833Z" fill="#9EADBF"/>
<path d="M37.3579 43.524C36.3884 44.4935 35.8438 45.8084 35.8438 47.1794C35.8438 47.8583 35.9775 48.5305 36.2373 49.1577C36.4971 49.7849 36.8778 50.3548 37.3579 50.8348C37.8379 51.3149 38.4078 51.6957 39.035 51.9555C39.6622 52.2153 40.3344 52.349 41.0133 52.349C42.3843 52.349 43.6992 51.8043 44.6687 50.8348L59.2904 28.9023L37.3579 43.524Z" fill="#9EADBF"/>
</svg>
