<svg xmlns="http://www.w3.org/2000/svg" width="83" height="83" fill="none"><path fill="#9EADBF" d="M60.271 36.833a2.58 2.58 0 0 0-.18 2.583 19.6 19.6 0 0 1 1.343 4.676c.665 4.16.043 8.423-1.783 12.22a2.58 2.58 0 0 1-2.299 1.369H24.673a2.58 2.58 0 0 1-2.3-1.395 20.667 20.667 0 0 1 21.21-29.631 19.9 19.9 0 0 1 5.45 1.446 2.58 2.58 0 0 0 2.584-.18 2.582 2.582 0 0 0-.439-4.547 25.833 25.833 0 0 0-32.524 36.709 5.17 5.17 0 0 0 4.443 2.583h35.78a5.17 5.17 0 0 0 4.494-2.583 25.83 25.83 0 0 0 1.421-22.966 2.584 2.584 0 0 0-4.52-.284"/><path fill="#9EADBF" d="M37.358 43.524a5.17 5.17 0 0 0 7.31 7.31L59.29 28.903z"/></svg>