<svg width="83" height="83" viewBox="0 0 83 83" fill="none" xmlns="http://www.w3.org/2000/svg">
<path d="M61.1729 26.0087L42.7729 18.3517C42.2124 18.1195 41.6116 18 41.0048 18C40.398 18 39.7972 18.1195 39.2367 18.3517L20.8367 26.0087C19.1212 26.717 18 28.392 18 30.2488C18 49.2477 28.9729 62.3795 39.2271 66.6483C40.3579 67.1172 41.6325 67.1172 42.7633 66.6483C50.9762 63.2313 64 51.43 64 30.2488C64 28.392 62.8787 26.717 61.1729 26.0087ZM41.0096 60.7141L41 24.2476L57.8571 31.2634C57.5408 45.7542 49.9892 56.2539 41.0096 60.7141Z" fill="#9EADBF"/>
</svg>
